<svg width="295" height="246" viewBox="0 0 295 246" fill="none" xmlns="http://www.w3.org/2000/svg">
<g clip-path="url(#clip0_1_498)">
<path d="M198.938 3.58035C206.85 8.2926 205.366 21.6923 205.769 38.9879C206 48.6494 206.043 52.8615 205.957 61.7331C205.884 68.4724 206.49 80.3187 204.443 85.9788C202.353 91.744 196.675 93.1392 193.086 94.4818C188.561 96.1666 183.978 97.3248 179.366 97.7725C176.642 98.0357 173.918 98.2989 171.208 98.7201C169.608 98.9835 166.985 98.6938 165.559 100.326C163.829 102.327 162.633 111.462 160.615 116.49C158.814 120.965 156.464 125.177 153.726 127.652C152.962 128.336 152.126 128.915 151.276 128.678C148.61 127.994 148.811 119.728 148.797 116.147C148.783 113.147 148.869 109.961 149.201 106.934C149.532 103.906 148.163 101.168 146.477 101.432L139.977 102.458C127.51 102.827 124.599 101.985 113.371 97.8778C108.803 96.2192 106.179 90.1381 105.934 81.398C105.617 69.9729 105.891 58.3898 105.862 46.9645C105.848 37.6191 105.041 27.0625 107.794 18.6384C110.691 9.76681 116.931 7.08163 122.523 5.55476C136.59 1.84289 150.757 0.184383 164.982 0.000105835C164.982 0.000105835 192.25 -0.394774 198.938 3.58035Z" fill="#F7BC28"/>
<path d="M128.029 44.095C147.125 44.9902 166.308 44.253 185.361 41.7522C188.114 41.3835 188.143 33.4859 185.361 33.8546C166.308 36.3554 147.125 37.0926 128.029 36.1976C125.247 36.0658 125.247 43.9634 128.029 44.095Z" fill="white"/>
<path d="M124.757 66.3138C137.109 66.3138 149.46 65.2607 161.812 64.9975C171.367 64.8132 180.879 65.6557 190.406 64.1551C193.158 63.7339 193.187 55.8362 190.406 56.2575C180.879 57.7318 171.367 56.8893 161.812 57.0999C149.46 57.3631 137.109 58.4162 124.757 58.4162C121.976 58.4162 121.961 66.3138 124.757 66.3138Z" fill="white"/>
<path d="M105.214 136.839C105.358 135.26 104.796 133.707 103.931 133.391C98.6275 131.469 93.6696 126.888 90.5565 118.385C85.2239 103.801 94.7794 88.9008 101.582 84.0044C108.572 78.9761 116.902 79.5554 123.374 86.5843C123.792 87.0318 124.181 87.5056 124.57 88.0321C129.225 94.2185 133.116 106.407 131.877 116.595C131.416 120.36 130.277 123.835 128.202 126.651C124.339 131.916 119.093 133.864 114.092 134.365C113.126 134.47 112.218 135.207 111.584 136.523C110.532 138.682 108.774 142.078 107.16 144.421C106.093 145.974 104.537 144.237 104.767 141.789L105.214 136.839Z" fill="#39B55D"/>
<path d="M101.769 104.617C108.067 104.617 114.366 104.617 120.664 104.617C122.984 104.617 122.984 98.0356 120.664 98.0356C114.366 98.0356 108.067 98.0356 101.769 98.0356C99.4487 98.0356 99.4487 104.617 101.769 104.617Z" fill="white"/>
<path d="M100.847 118.622C107.376 118.622 113.904 118.622 120.433 118.622C122.754 118.622 122.754 112.041 120.433 112.041C113.904 112.041 107.376 112.041 100.847 112.041C98.5264 112.041 98.5264 118.622 100.847 118.622Z" fill="white"/>
</g>
<path d="M59.4046 220H52.2226V207.148H59.4046V208.57H53.8426V212.584H59.0806V213.988H53.8426V218.578H59.4046V220ZM72.5925 210.172C73.6845 210.172 74.5005 210.454 75.0405 211.018C75.5805 211.57 75.8505 212.47 75.8505 213.718V220H74.2845V213.79C74.2845 212.266 73.6305 211.504 72.3225 211.504C71.3865 211.504 70.7145 211.774 70.3065 212.314C69.9105 212.854 69.7125 213.64 69.7125 214.672V220H68.1465V213.79C68.1465 212.266 67.4865 211.504 66.1665 211.504C65.1945 211.504 64.5225 211.804 64.1505 212.404C63.7785 213.004 63.5925 213.868 63.5925 214.996V220H62.0085V210.352H63.2865L63.5205 211.666H63.6105C63.9105 211.162 64.3125 210.79 64.8165 210.55C65.3325 210.298 65.8785 210.172 66.4545 210.172C67.9665 210.172 68.9505 210.712 69.4065 211.792H69.4965C69.8205 211.24 70.2585 210.832 70.8105 210.568C71.3745 210.304 71.9685 210.172 72.5925 210.172ZM83.4208 210.172C84.6088 210.172 85.5628 210.586 86.2828 211.414C87.0148 212.242 87.3808 213.49 87.3808 215.158C87.3808 216.802 87.0148 218.05 86.2828 218.902C85.5628 219.754 84.6028 220.18 83.4028 220.18C82.6588 220.18 82.0408 220.042 81.5488 219.766C81.0688 219.478 80.6908 219.148 80.4148 218.776H80.3068C80.3308 218.98 80.3548 219.238 80.3788 219.55C80.4028 219.862 80.4148 220.132 80.4148 220.36V224.32H78.8308V210.352H80.1268L80.3428 211.666H80.4148C80.7028 211.246 81.0808 210.892 81.5488 210.604C82.0168 210.316 82.6408 210.172 83.4208 210.172ZM83.1328 211.504C82.1488 211.504 81.4528 211.78 81.0448 212.332C80.6488 212.884 80.4388 213.724 80.4148 214.852V215.158C80.4148 216.346 80.6068 217.264 80.9908 217.912C81.3868 218.548 82.1128 218.866 83.1688 218.866C83.7568 218.866 84.2368 218.704 84.6088 218.38C84.9928 218.056 85.2748 217.618 85.4548 217.066C85.6468 216.502 85.7428 215.86 85.7428 215.14C85.7428 214.036 85.5268 213.154 85.0948 212.494C84.6748 211.834 84.0208 211.504 83.1328 211.504ZM91.489 220H89.905V206.32H91.489V220ZM102.934 215.158C102.934 216.754 102.526 217.99 101.71 218.866C100.906 219.742 99.8136 220.18 98.4336 220.18C97.5816 220.18 96.8196 219.988 96.1476 219.604C95.4876 219.208 94.9656 218.638 94.5816 217.894C94.1976 217.138 94.0056 216.226 94.0056 215.158C94.0056 213.562 94.4076 212.332 95.2116 211.468C96.0156 210.604 97.1076 210.172 98.4876 210.172C99.3636 210.172 100.132 210.37 100.792 210.766C101.464 211.15 101.986 211.714 102.358 212.458C102.742 213.19 102.934 214.09 102.934 215.158ZM95.6436 215.158C95.6436 216.298 95.8656 217.204 96.3096 217.876C96.7656 218.536 97.4856 218.866 98.4696 218.866C99.4416 218.866 100.156 218.536 100.612 217.876C101.068 217.204 101.296 216.298 101.296 215.158C101.296 214.018 101.068 213.124 100.612 212.476C100.156 211.828 99.4356 211.504 98.4516 211.504C97.4676 211.504 96.7536 211.828 96.3096 212.476C95.8656 213.124 95.6436 214.018 95.6436 215.158ZM103.581 210.352H105.273L107.361 215.842C107.541 216.322 107.703 216.784 107.847 217.228C107.991 217.66 108.099 218.074 108.171 218.47H108.243C108.315 218.17 108.429 217.78 108.585 217.3C108.741 216.808 108.903 216.316 109.071 215.824L111.033 210.352H112.743L108.585 221.332C108.249 222.244 107.811 222.97 107.271 223.51C106.743 224.05 106.011 224.32 105.075 224.32C104.787 224.32 104.535 224.302 104.319 224.266C104.103 224.242 103.917 224.212 103.761 224.176V222.916C103.893 222.94 104.049 222.964 104.229 222.988C104.421 223.012 104.619 223.024 104.823 223.024C105.375 223.024 105.819 222.868 106.155 222.556C106.503 222.244 106.773 221.83 106.965 221.314L107.469 220.036L103.581 210.352ZM117.994 210.172C118.822 210.172 119.53 210.352 120.118 210.712C120.718 211.072 121.174 211.582 121.486 212.242C121.81 212.89 121.972 213.652 121.972 214.528V215.482H115.366C115.39 216.574 115.666 217.408 116.194 217.984C116.734 218.548 117.484 218.83 118.444 218.83C119.056 218.83 119.596 218.776 120.064 218.668C120.544 218.548 121.036 218.38 121.54 218.164V219.55C121.048 219.766 120.562 219.922 120.082 220.018C119.602 220.126 119.032 220.18 118.372 220.18C117.46 220.18 116.65 219.994 115.942 219.622C115.246 219.25 114.7 218.698 114.304 217.966C113.92 217.222 113.728 216.316 113.728 215.248C113.728 214.192 113.902 213.286 114.25 212.53C114.61 211.774 115.108 211.192 115.744 210.784C116.392 210.376 117.142 210.172 117.994 210.172ZM117.976 211.468C117.22 211.468 116.62 211.714 116.176 212.206C115.744 212.686 115.486 213.358 115.402 214.222H120.316C120.304 213.406 120.112 212.746 119.74 212.242C119.368 211.726 118.78 211.468 117.976 211.468ZM128.154 210.172C128.982 210.172 129.69 210.352 130.278 210.712C130.878 211.072 131.334 211.582 131.646 212.242C131.97 212.89 132.132 213.652 132.132 214.528V215.482H125.526C125.55 216.574 125.826 217.408 126.354 217.984C126.894 218.548 127.644 218.83 128.604 218.83C129.216 218.83 129.756 218.776 130.224 218.668C130.704 218.548 131.196 218.38 131.7 218.164V219.55C131.208 219.766 130.722 219.922 130.242 220.018C129.762 220.126 129.192 220.18 128.532 220.18C127.62 220.18 126.81 219.994 126.102 219.622C125.406 219.25 124.86 218.698 124.464 217.966C124.08 217.222 123.888 216.316 123.888 215.248C123.888 214.192 124.062 213.286 124.41 212.53C124.77 211.774 125.268 211.192 125.904 210.784C126.552 210.376 127.302 210.172 128.154 210.172ZM128.136 211.468C127.38 211.468 126.78 211.714 126.336 212.206C125.904 212.686 125.646 213.358 125.562 214.222H130.476C130.464 213.406 130.272 212.746 129.9 212.242C129.528 211.726 128.94 211.468 128.136 211.468ZM146.662 220H139.48V207.148H146.662V208.57H141.1V212.584H146.338V213.988H141.1V218.578H146.662V220ZM151.552 215.068L148.222 210.352H150.022L152.506 213.988L154.972 210.352H156.754L153.424 215.068L156.934 220H155.134L152.506 216.148L149.842 220H148.06L151.552 215.068ZM163.384 210.172C164.572 210.172 165.526 210.586 166.246 211.414C166.978 212.242 167.344 213.49 167.344 215.158C167.344 216.802 166.978 218.05 166.246 218.902C165.526 219.754 164.566 220.18 163.366 220.18C162.622 220.18 162.004 220.042 161.512 219.766C161.032 219.478 160.654 219.148 160.378 218.776H160.27C160.294 218.98 160.318 219.238 160.342 219.55C160.366 219.862 160.378 220.132 160.378 220.36V224.32H158.794V210.352H160.09L160.306 211.666H160.378C160.666 211.246 161.044 210.892 161.512 210.604C161.98 210.316 162.604 210.172 163.384 210.172ZM163.096 211.504C162.112 211.504 161.416 211.78 161.008 212.332C160.612 212.884 160.402 213.724 160.378 214.852V215.158C160.378 216.346 160.57 217.264 160.954 217.912C161.35 218.548 162.076 218.866 163.132 218.866C163.72 218.866 164.2 218.704 164.572 218.38C164.956 218.056 165.238 217.618 165.418 217.066C165.61 216.502 165.706 215.86 165.706 215.14C165.706 214.036 165.49 213.154 165.058 212.494C164.638 211.834 163.984 211.504 163.096 211.504ZM173.594 210.172C174.422 210.172 175.13 210.352 175.718 210.712C176.318 211.072 176.774 211.582 177.086 212.242C177.41 212.89 177.572 213.652 177.572 214.528V215.482H170.966C170.99 216.574 171.266 217.408 171.794 217.984C172.334 218.548 173.084 218.83 174.044 218.83C174.656 218.83 175.196 218.776 175.664 218.668C176.144 218.548 176.636 218.38 177.14 218.164V219.55C176.648 219.766 176.162 219.922 175.682 220.018C175.202 220.126 174.632 220.18 173.972 220.18C173.06 220.18 172.25 219.994 171.542 219.622C170.846 219.25 170.3 218.698 169.904 217.966C169.52 217.222 169.328 216.316 169.328 215.248C169.328 214.192 169.502 213.286 169.85 212.53C170.21 211.774 170.708 211.192 171.344 210.784C171.992 210.376 172.742 210.172 173.594 210.172ZM173.576 211.468C172.82 211.468 172.22 211.714 171.776 212.206C171.344 212.686 171.086 213.358 171.002 214.222H175.916C175.904 213.406 175.712 212.746 175.34 212.242C174.968 211.726 174.38 211.468 173.576 211.468ZM183.898 220.18C183.046 220.18 182.284 220.006 181.612 219.658C180.952 219.31 180.43 218.77 180.046 218.038C179.674 217.306 179.488 216.37 179.488 215.23C179.488 214.042 179.686 213.076 180.082 212.332C180.478 211.588 181.012 211.042 181.684 210.694C182.368 210.346 183.142 210.172 184.006 210.172C184.498 210.172 184.972 210.226 185.428 210.334C185.884 210.43 186.256 210.55 186.544 210.694L186.058 212.008C185.77 211.9 185.434 211.798 185.05 211.702C184.666 211.606 184.306 211.558 183.97 211.558C182.074 211.558 181.126 212.776 181.126 215.212C181.126 216.376 181.354 217.27 181.81 217.894C182.278 218.506 182.968 218.812 183.88 218.812C184.408 218.812 184.87 218.758 185.266 218.65C185.674 218.542 186.046 218.41 186.382 218.254V219.658C186.058 219.826 185.698 219.952 185.302 220.036C184.918 220.132 184.45 220.18 183.898 220.18ZM191.898 218.884C192.138 218.884 192.384 218.866 192.636 218.83C192.888 218.782 193.092 218.734 193.248 218.686V219.892C193.08 219.976 192.84 220.042 192.528 220.09C192.216 220.15 191.916 220.18 191.628 220.18C191.124 220.18 190.656 220.096 190.224 219.928C189.804 219.748 189.462 219.442 189.198 219.01C188.934 218.578 188.802 217.972 188.802 217.192V211.576H187.434V210.82L188.82 210.19L189.45 208.138H190.386V210.352H193.176V211.576H190.386V217.156C190.386 217.744 190.524 218.182 190.8 218.47C191.088 218.746 191.454 218.884 191.898 218.884ZM198.834 210.19C200.01 210.19 200.88 210.448 201.444 210.964C202.008 211.48 202.29 212.302 202.29 213.43V220H201.138L200.832 218.632H200.76C200.34 219.16 199.896 219.55 199.428 219.802C198.972 220.054 198.336 220.18 197.52 220.18C196.644 220.18 195.918 219.952 195.342 219.496C194.766 219.028 194.478 218.302 194.478 217.318C194.478 216.358 194.856 215.62 195.612 215.104C196.368 214.576 197.532 214.288 199.104 214.24L200.742 214.186V213.61C200.742 212.806 200.568 212.248 200.22 211.936C199.872 211.624 199.38 211.468 198.744 211.468C198.24 211.468 197.76 211.546 197.304 211.702C196.848 211.846 196.422 212.014 196.026 212.206L195.54 211.018C195.96 210.79 196.458 210.598 197.034 210.442C197.61 210.274 198.21 210.19 198.834 210.19ZM199.302 215.338C198.102 215.386 197.268 215.578 196.8 215.914C196.344 216.25 196.116 216.724 196.116 217.336C196.116 217.876 196.278 218.272 196.602 218.524C196.938 218.776 197.364 218.902 197.88 218.902C198.696 218.902 199.374 218.68 199.914 218.236C200.454 217.78 200.724 217.084 200.724 216.148V215.284L199.302 215.338ZM208.492 218.884C208.732 218.884 208.978 218.866 209.23 218.83C209.482 218.782 209.686 218.734 209.842 218.686V219.892C209.674 219.976 209.434 220.042 209.122 220.09C208.81 220.15 208.51 220.18 208.222 220.18C207.718 220.18 207.25 220.096 206.818 219.928C206.398 219.748 206.056 219.442 205.792 219.01C205.528 218.578 205.396 217.972 205.396 217.192V211.576H204.028V210.82L205.414 210.19L206.044 208.138H206.98V210.352H209.77V211.576H206.98V217.156C206.98 217.744 207.118 218.182 207.394 218.47C207.682 218.746 208.048 218.884 208.492 218.884ZM212.584 206.734C212.824 206.734 213.034 206.818 213.214 206.986C213.406 207.142 213.502 207.394 213.502 207.742C213.502 208.078 213.406 208.33 213.214 208.498C213.034 208.666 212.824 208.75 212.584 208.75C212.32 208.75 212.098 208.666 211.918 208.498C211.738 208.33 211.648 208.078 211.648 207.742C211.648 207.394 211.738 207.142 211.918 206.986C212.098 206.818 212.32 206.734 212.584 206.734ZM213.358 210.352V220H211.774V210.352H213.358ZM224.803 215.158C224.803 216.754 224.395 217.99 223.579 218.866C222.775 219.742 221.683 220.18 220.303 220.18C219.451 220.18 218.689 219.988 218.017 219.604C217.357 219.208 216.835 218.638 216.451 217.894C216.067 217.138 215.875 216.226 215.875 215.158C215.875 213.562 216.277 212.332 217.081 211.468C217.885 210.604 218.977 210.172 220.357 210.172C221.233 210.172 222.001 210.37 222.661 210.766C223.333 211.15 223.855 211.714 224.227 212.458C224.611 213.19 224.803 214.09 224.803 215.158ZM217.513 215.158C217.513 216.298 217.735 217.204 218.179 217.876C218.635 218.536 219.355 218.866 220.339 218.866C221.311 218.866 222.025 218.536 222.481 217.876C222.937 217.204 223.165 216.298 223.165 215.158C223.165 214.018 222.937 213.124 222.481 212.476C222.025 211.828 221.305 211.504 220.321 211.504C219.337 211.504 218.623 211.828 218.179 212.476C217.735 213.124 217.513 214.018 217.513 215.158ZM231.957 210.172C233.109 210.172 233.979 210.454 234.567 211.018C235.155 211.57 235.449 212.47 235.449 213.718V220H233.883V213.826C233.883 212.278 233.163 211.504 231.723 211.504C230.655 211.504 229.917 211.804 229.509 212.404C229.101 213.004 228.897 213.868 228.897 214.996V220H227.313V210.352H228.591L228.825 211.666H228.915C229.227 211.162 229.659 210.79 230.211 210.55C230.763 210.298 231.345 210.172 231.957 210.172ZM244.722 217.336C244.722 218.272 244.374 218.98 243.678 219.46C242.982 219.94 242.046 220.18 240.87 220.18C240.198 220.18 239.616 220.126 239.124 220.018C238.644 219.91 238.218 219.76 237.846 219.568V218.128C238.23 218.32 238.692 218.5 239.232 218.668C239.784 218.824 240.342 218.902 240.906 218.902C241.71 218.902 242.292 218.776 242.652 218.524C243.012 218.26 243.192 217.912 243.192 217.48C243.192 217.24 243.126 217.024 242.994 216.832C242.862 216.64 242.622 216.448 242.274 216.256C241.938 216.064 241.452 215.848 240.816 215.608C240.192 215.368 239.658 215.128 239.214 214.888C238.77 214.648 238.428 214.36 238.188 214.024C237.948 213.688 237.828 213.256 237.828 212.728C237.828 211.912 238.158 211.282 238.818 210.838C239.49 210.394 240.366 210.172 241.446 210.172C242.034 210.172 242.58 210.232 243.084 210.352C243.6 210.46 244.08 210.616 244.524 210.82L243.984 212.08C243.576 211.912 243.15 211.768 242.706 211.648C242.262 211.528 241.806 211.468 241.338 211.468C240.69 211.468 240.192 211.576 239.844 211.792C239.508 211.996 239.34 212.278 239.34 212.638C239.34 212.902 239.418 213.13 239.574 213.322C239.73 213.502 239.988 213.682 240.348 213.862C240.72 214.03 241.212 214.234 241.824 214.474C242.436 214.702 242.958 214.936 243.39 215.176C243.822 215.416 244.152 215.71 244.38 216.058C244.608 216.394 244.722 216.82 244.722 217.336Z" fill="#FBFAF7"/>
<path d="M73.4593 193H66.2773V180.148H73.4593V181.57H67.8973V185.584H73.1353V186.988H67.8973V191.578H73.4593V193ZM79.4832 193.18C78.2832 193.18 77.3232 192.766 76.6032 191.938C75.8832 191.098 75.5232 189.85 75.5232 188.194C75.5232 186.538 75.8832 185.29 76.6032 184.45C77.3352 183.598 78.3012 183.172 79.5012 183.172C80.2452 183.172 80.8512 183.31 81.3192 183.586C81.7992 183.862 82.1892 184.198 82.4892 184.594H82.5972C82.5852 184.438 82.5612 184.21 82.5252 183.91C82.5012 183.598 82.4892 183.352 82.4892 183.172V179.32H84.0732V193H82.7952L82.5612 191.704H82.4892C82.2012 192.112 81.8172 192.46 81.3372 192.748C80.8572 193.036 80.2392 193.18 79.4832 193.18ZM79.7352 191.866C80.7552 191.866 81.4692 191.59 81.8772 191.038C82.2972 190.474 82.5072 189.628 82.5072 188.5V188.212C82.5072 187.012 82.3092 186.094 81.9132 185.458C81.5172 184.81 80.7852 184.486 79.7172 184.486C78.8652 184.486 78.2232 184.828 77.7912 185.512C77.3712 186.184 77.1612 187.09 77.1612 188.23C77.1612 189.382 77.3712 190.276 77.7912 190.912C78.2232 191.548 78.8712 191.866 79.7352 191.866ZM95.2014 183.352V193H93.9054L93.6714 191.722H93.5994C93.2874 192.226 92.8554 192.598 92.3034 192.838C91.7514 193.066 91.1634 193.18 90.5394 193.18C89.3754 193.18 88.4994 192.904 87.9114 192.352C87.3234 191.788 87.0294 190.894 87.0294 189.67V183.352H88.6314V189.562C88.6314 191.098 89.3454 191.866 90.7734 191.866C91.8414 191.866 92.5794 191.566 92.9874 190.966C93.4074 190.366 93.6174 189.502 93.6174 188.374V183.352H95.2014ZM102.134 193.18C101.282 193.18 100.52 193.006 99.8484 192.658C99.1884 192.31 98.6664 191.77 98.2824 191.038C97.9104 190.306 97.7244 189.37 97.7244 188.23C97.7244 187.042 97.9224 186.076 98.3184 185.332C98.7144 184.588 99.2484 184.042 99.9204 183.694C100.604 183.346 101.378 183.172 102.242 183.172C102.734 183.172 103.208 183.226 103.664 183.334C104.12 183.43 104.492 183.55 104.78 183.694L104.294 185.008C104.006 184.9 103.67 184.798 103.286 184.702C102.902 184.606 102.542 184.558 102.206 184.558C100.31 184.558 99.3624 185.776 99.3624 188.212C99.3624 189.376 99.5904 190.27 100.046 190.894C100.514 191.506 101.204 191.812 102.116 191.812C102.644 191.812 103.106 191.758 103.502 191.65C103.91 191.542 104.282 191.41 104.618 191.254V192.658C104.294 192.826 103.934 192.952 103.538 193.036C103.154 193.132 102.686 193.18 102.134 193.18ZM110.567 183.19C111.743 183.19 112.613 183.448 113.177 183.964C113.741 184.48 114.023 185.302 114.023 186.43V193H112.871L112.565 191.632H112.493C112.073 192.16 111.629 192.55 111.161 192.802C110.705 193.054 110.069 193.18 109.253 193.18C108.377 193.18 107.651 192.952 107.075 192.496C106.499 192.028 106.211 191.302 106.211 190.318C106.211 189.358 106.589 188.62 107.345 188.104C108.101 187.576 109.265 187.288 110.837 187.24L112.475 187.186V186.61C112.475 185.806 112.301 185.248 111.953 184.936C111.605 184.624 111.113 184.468 110.477 184.468C109.973 184.468 109.493 184.546 109.037 184.702C108.581 184.846 108.155 185.014 107.759 185.206L107.273 184.018C107.693 183.79 108.191 183.598 108.767 183.442C109.343 183.274 109.943 183.19 110.567 183.19ZM111.035 188.338C109.835 188.386 109.001 188.578 108.533 188.914C108.077 189.25 107.849 189.724 107.849 190.336C107.849 190.876 108.011 191.272 108.335 191.524C108.671 191.776 109.097 191.902 109.613 191.902C110.429 191.902 111.107 191.68 111.647 191.236C112.187 190.78 112.457 190.084 112.457 189.148V188.284L111.035 188.338ZM120.225 191.884C120.465 191.884 120.711 191.866 120.963 191.83C121.215 191.782 121.419 191.734 121.575 191.686V192.892C121.407 192.976 121.167 193.042 120.855 193.09C120.543 193.15 120.243 193.18 119.955 193.18C119.451 193.18 118.983 193.096 118.551 192.928C118.131 192.748 117.789 192.442 117.525 192.01C117.261 191.578 117.129 190.972 117.129 190.192V184.576H115.761V183.82L117.147 183.19L117.777 181.138H118.713V183.352H121.503V184.576H118.713V190.156C118.713 190.744 118.851 191.182 119.127 191.47C119.415 191.746 119.781 191.884 120.225 191.884ZM127.233 183.172C128.061 183.172 128.769 183.352 129.357 183.712C129.957 184.072 130.413 184.582 130.725 185.242C131.049 185.89 131.211 186.652 131.211 187.528V188.482H124.605C124.629 189.574 124.905 190.408 125.433 190.984C125.973 191.548 126.723 191.83 127.683 191.83C128.295 191.83 128.835 191.776 129.303 191.668C129.783 191.548 130.275 191.38 130.779 191.164V192.55C130.287 192.766 129.801 192.922 129.321 193.018C128.841 193.126 128.271 193.18 127.611 193.18C126.699 193.18 125.889 192.994 125.181 192.622C124.485 192.25 123.939 191.698 123.543 190.966C123.159 190.222 122.967 189.316 122.967 188.248C122.967 187.192 123.141 186.286 123.489 185.53C123.849 184.774 124.347 184.192 124.983 183.784C125.631 183.376 126.381 183.172 127.233 183.172ZM127.215 184.468C126.459 184.468 125.859 184.714 125.415 185.206C124.983 185.686 124.725 186.358 124.641 187.222H129.555C129.543 186.406 129.351 185.746 128.979 185.242C128.607 184.726 128.019 184.468 127.215 184.468ZM139.949 190.336C139.949 191.272 139.601 191.98 138.905 192.46C138.209 192.94 137.273 193.18 136.097 193.18C135.425 193.18 134.843 193.126 134.351 193.018C133.871 192.91 133.445 192.76 133.073 192.568V191.128C133.457 191.32 133.919 191.5 134.459 191.668C135.011 191.824 135.569 191.902 136.133 191.902C136.937 191.902 137.519 191.776 137.879 191.524C138.239 191.26 138.419 190.912 138.419 190.48C138.419 190.24 138.353 190.024 138.221 189.832C138.089 189.64 137.849 189.448 137.501 189.256C137.165 189.064 136.679 188.848 136.043 188.608C135.419 188.368 134.885 188.128 134.441 187.888C133.997 187.648 133.655 187.36 133.415 187.024C133.175 186.688 133.055 186.256 133.055 185.728C133.055 184.912 133.385 184.282 134.045 183.838C134.717 183.394 135.593 183.172 136.673 183.172C137.261 183.172 137.807 183.232 138.311 183.352C138.827 183.46 139.307 183.616 139.751 183.82L139.211 185.08C138.803 184.912 138.377 184.768 137.933 184.648C137.489 184.528 137.033 184.468 136.565 184.468C135.917 184.468 135.419 184.576 135.071 184.792C134.735 184.996 134.567 185.278 134.567 185.638C134.567 185.902 134.645 186.13 134.801 186.322C134.957 186.502 135.215 186.682 135.575 186.862C135.947 187.03 136.439 187.234 137.051 187.474C137.663 187.702 138.185 187.936 138.617 188.176C139.049 188.416 139.379 188.71 139.607 189.058C139.835 189.394 139.949 189.82 139.949 190.336ZM150.898 179.95C151.858 179.95 152.614 180.196 153.166 180.688C153.73 181.168 154.012 181.846 154.012 182.722C154.012 183.478 153.766 184.12 153.274 184.648C152.794 185.176 152.182 185.656 151.438 186.088L154.912 189.436C155.224 189.064 155.476 188.638 155.668 188.158C155.872 187.666 156.04 187.138 156.172 186.574H157.774C157.582 187.342 157.342 188.056 157.054 188.716C156.766 189.376 156.394 189.952 155.938 190.444L158.566 193H156.424L154.858 191.488C154.294 191.992 153.664 192.4 152.968 192.712C152.272 193.024 151.426 193.18 150.43 193.18C149.194 193.18 148.21 192.874 147.478 192.262C146.746 191.65 146.38 190.78 146.38 189.652C146.38 188.728 146.626 187.99 147.118 187.438C147.622 186.874 148.3 186.352 149.152 185.872C148.768 185.44 148.408 184.978 148.072 184.486C147.748 183.994 147.586 183.418 147.586 182.758C147.586 181.87 147.88 181.18 148.468 180.688C149.068 180.196 149.878 179.95 150.898 179.95ZM150.844 181.246C150.34 181.246 149.926 181.378 149.602 181.642C149.29 181.906 149.134 182.272 149.134 182.74C149.134 183.172 149.248 183.574 149.476 183.946C149.704 184.306 150.034 184.708 150.466 185.152C151.174 184.744 151.678 184.36 151.978 184C152.29 183.628 152.446 183.202 152.446 182.722C152.446 182.29 152.302 181.936 152.014 181.66C151.726 181.384 151.336 181.246 150.844 181.246ZM150.106 186.862C149.458 187.246 148.948 187.636 148.576 188.032C148.216 188.428 148.036 188.95 148.036 189.598C148.036 190.258 148.258 190.786 148.702 191.182C149.146 191.578 149.74 191.776 150.484 191.776C151.252 191.776 151.912 191.65 152.464 191.398C153.016 191.146 153.478 190.846 153.85 190.498L150.106 186.862ZM168.649 193H164.005V192.064L165.517 191.722V181.444L164.005 181.084V180.148H168.649V181.084L167.137 181.444V191.722L168.649 192.064V193ZM175.559 183.172C176.711 183.172 177.581 183.454 178.169 184.018C178.757 184.57 179.051 185.47 179.051 186.718V193H177.485V186.826C177.485 185.278 176.765 184.504 175.325 184.504C174.257 184.504 173.519 184.804 173.111 185.404C172.703 186.004 172.499 186.868 172.499 187.996V193H170.915V183.352H172.193L172.427 184.666H172.517C172.829 184.162 173.261 183.79 173.813 183.55C174.365 183.298 174.947 183.172 175.559 183.172ZM186.488 184.576H184.058V193H182.474V184.576H180.782V183.838L182.474 183.298V182.74C182.474 181.492 182.75 180.598 183.302 180.058C183.854 179.506 184.622 179.23 185.606 179.23C185.99 179.23 186.338 179.266 186.65 179.338C186.974 179.398 187.25 179.47 187.478 179.554L187.064 180.796C186.872 180.736 186.65 180.676 186.398 180.616C186.146 180.556 185.888 180.526 185.624 180.526C185.096 180.526 184.7 180.706 184.436 181.066C184.184 181.414 184.058 181.966 184.058 182.722V183.352H186.488V184.576ZM196.617 188.158C196.617 189.754 196.209 190.99 195.393 191.866C194.589 192.742 193.497 193.18 192.117 193.18C191.265 193.18 190.503 192.988 189.831 192.604C189.171 192.208 188.649 191.638 188.265 190.894C187.881 190.138 187.689 189.226 187.689 188.158C187.689 186.562 188.091 185.332 188.895 184.468C189.699 183.604 190.791 183.172 192.171 183.172C193.047 183.172 193.815 183.37 194.475 183.766C195.147 184.15 195.669 184.714 196.041 185.458C196.425 186.19 196.617 187.09 196.617 188.158ZM189.327 188.158C189.327 189.298 189.549 190.204 189.993 190.876C190.449 191.536 191.169 191.866 192.153 191.866C193.125 191.866 193.839 191.536 194.295 190.876C194.751 190.204 194.979 189.298 194.979 188.158C194.979 187.018 194.751 186.124 194.295 185.476C193.839 184.828 193.119 184.504 192.135 184.504C191.151 184.504 190.437 184.828 189.993 185.476C189.549 186.124 189.327 187.018 189.327 188.158ZM203.628 183.172C203.808 183.172 204 183.184 204.204 183.208C204.42 183.22 204.606 183.244 204.762 183.28L204.564 184.738C204.408 184.702 204.234 184.672 204.042 184.648C203.862 184.624 203.688 184.612 203.52 184.612C203.028 184.612 202.566 184.75 202.134 185.026C201.702 185.29 201.354 185.668 201.09 186.16C200.838 186.64 200.712 187.204 200.712 187.852V193H199.128V183.352H200.424L200.604 185.116H200.676C200.988 184.588 201.39 184.132 201.882 183.748C202.374 183.364 202.956 183.172 203.628 183.172ZM217.147 183.172C218.239 183.172 219.055 183.454 219.595 184.018C220.135 184.57 220.405 185.47 220.405 186.718V193H218.839V186.79C218.839 185.266 218.185 184.504 216.877 184.504C215.941 184.504 215.269 184.774 214.861 185.314C214.465 185.854 214.267 186.64 214.267 187.672V193H212.701V186.79C212.701 185.266 212.041 184.504 210.721 184.504C209.749 184.504 209.077 184.804 208.705 185.404C208.333 186.004 208.147 186.868 208.147 187.996V193H206.563V183.352H207.841L208.075 184.666H208.165C208.465 184.162 208.867 183.79 209.371 183.55C209.887 183.298 210.433 183.172 211.009 183.172C212.521 183.172 213.505 183.712 213.961 184.792H214.051C214.375 184.24 214.813 183.832 215.365 183.568C215.929 183.304 216.523 183.172 217.147 183.172ZM229.667 190.336C229.667 191.272 229.319 191.98 228.623 192.46C227.927 192.94 226.991 193.18 225.815 193.18C225.143 193.18 224.561 193.126 224.069 193.018C223.589 192.91 223.163 192.76 222.791 192.568V191.128C223.175 191.32 223.637 191.5 224.177 191.668C224.729 191.824 225.287 191.902 225.851 191.902C226.655 191.902 227.237 191.776 227.597 191.524C227.957 191.26 228.137 190.912 228.137 190.48C228.137 190.24 228.071 190.024 227.939 189.832C227.807 189.64 227.567 189.448 227.219 189.256C226.883 189.064 226.397 188.848 225.761 188.608C225.137 188.368 224.603 188.128 224.159 187.888C223.715 187.648 223.373 187.36 223.133 187.024C222.893 186.688 222.773 186.256 222.773 185.728C222.773 184.912 223.103 184.282 223.763 183.838C224.435 183.394 225.311 183.172 226.391 183.172C226.979 183.172 227.525 183.232 228.029 183.352C228.545 183.46 229.025 183.616 229.469 183.82L228.929 185.08C228.521 184.912 228.095 184.768 227.651 184.648C227.207 184.528 226.751 184.468 226.283 184.468C225.635 184.468 225.137 184.576 224.789 184.792C224.453 184.996 224.285 185.278 224.285 185.638C224.285 185.902 224.363 186.13 224.519 186.322C224.675 186.502 224.933 186.682 225.293 186.862C225.665 187.03 226.157 187.234 226.769 187.474C227.381 187.702 227.903 187.936 228.335 188.176C228.767 188.416 229.097 188.71 229.325 189.058C229.553 189.394 229.667 189.82 229.667 190.336Z" fill="#FBFAF7"/>
<defs>
<clipPath id="clip0_1_498">
<rect width="117" height="145" fill="white" transform="translate(89)"/>
</clipPath>
</defs>
</svg>
