<svg width="295" height="251" viewBox="0 0 295 251" fill="none" xmlns="http://www.w3.org/2000/svg">
<path d="M85.1857 212.148L81.7657 225H80.1277L77.6257 216.576C77.5297 216.228 77.4337 215.88 77.3377 215.532C77.2417 215.184 77.1637 214.878 77.1037 214.614C77.0437 214.338 77.0017 214.146 76.9777 214.038C76.9657 214.194 76.8997 214.53 76.7797 215.046C76.6717 215.55 76.5337 216.078 76.3657 216.63L73.9357 225H72.2977L68.8957 212.148H70.5877L72.5857 219.996C72.7297 220.548 72.8497 221.082 72.9457 221.598C73.0537 222.114 73.1377 222.6 73.1977 223.056C73.2577 222.588 73.3477 222.078 73.4677 221.526C73.5877 220.974 73.7257 220.434 73.8817 219.906L76.1497 212.148H77.8237L80.1817 219.96C80.3497 220.512 80.4937 221.064 80.6137 221.616C80.7337 222.156 80.8237 222.636 80.8837 223.056C80.9437 222.612 81.0277 222.132 81.1357 221.616C81.2437 221.088 81.3697 220.542 81.5137 219.978L83.4937 212.148H85.1857ZM94.9805 220.158C94.9805 221.754 94.5725 222.99 93.7565 223.866C92.9525 224.742 91.8605 225.18 90.4805 225.18C89.6285 225.18 88.8665 224.988 88.1945 224.604C87.5345 224.208 87.0125 223.638 86.6285 222.894C86.2445 222.138 86.0525 221.226 86.0525 220.158C86.0525 218.562 86.4545 217.332 87.2585 216.468C88.0625 215.604 89.1545 215.172 90.5345 215.172C91.4105 215.172 92.1785 215.37 92.8385 215.766C93.5105 216.15 94.0325 216.714 94.4045 217.458C94.7885 218.19 94.9805 219.09 94.9805 220.158ZM87.6905 220.158C87.6905 221.298 87.9125 222.204 88.3565 222.876C88.8125 223.536 89.5325 223.866 90.5165 223.866C91.4885 223.866 92.2025 223.536 92.6585 222.876C93.1145 222.204 93.3425 221.298 93.3425 220.158C93.3425 219.018 93.1145 218.124 92.6585 217.476C92.2025 216.828 91.4825 216.504 90.4985 216.504C89.5145 216.504 88.8005 216.828 88.3565 217.476C87.9125 218.124 87.6905 219.018 87.6905 220.158ZM101.991 215.172C102.171 215.172 102.363 215.184 102.567 215.208C102.783 215.22 102.969 215.244 103.125 215.28L102.927 216.738C102.771 216.702 102.597 216.672 102.405 216.648C102.225 216.624 102.051 216.612 101.883 216.612C101.391 216.612 100.929 216.75 100.497 217.026C100.065 217.29 99.7169 217.668 99.4529 218.16C99.2009 218.64 99.0749 219.204 99.0749 219.852V225H97.4909V215.352H98.7869L98.9669 217.116H99.0389C99.3509 216.588 99.7529 216.132 100.245 215.748C100.737 215.364 101.319 215.172 101.991 215.172ZM106.492 218.466C106.492 218.658 106.48 218.91 106.456 219.222C106.444 219.534 106.432 219.804 106.42 220.032H106.492C106.564 219.936 106.672 219.798 106.816 219.618C106.96 219.438 107.104 219.258 107.248 219.078C107.404 218.886 107.536 218.73 107.644 218.61L110.722 215.352H112.576L108.67 219.474L112.846 225H110.938L107.59 220.5L106.492 221.454V225H104.926V211.32H106.492V218.466ZM126.616 225H119.434V212.148H126.616V213.57H121.054V217.584H126.292V218.988H121.054V223.578H126.616V225ZM133.863 215.172C135.015 215.172 135.885 215.454 136.473 216.018C137.061 216.57 137.355 217.47 137.355 218.718V225H135.789V218.826C135.789 217.278 135.069 216.504 133.629 216.504C132.561 216.504 131.823 216.804 131.415 217.404C131.007 218.004 130.803 218.868 130.803 219.996V225H129.219V215.352H130.497L130.731 216.666H130.821C131.133 216.162 131.565 215.79 132.117 215.55C132.669 215.298 133.251 215.172 133.863 215.172ZM142.47 225L138.816 215.352H140.508L142.56 221.04C142.656 221.304 142.758 221.598 142.866 221.922C142.974 222.246 143.07 222.558 143.154 222.858C143.238 223.146 143.298 223.392 143.334 223.596H143.406C143.454 223.392 143.52 223.14 143.604 222.84C143.7 222.54 143.802 222.228 143.91 221.904C144.03 221.58 144.132 221.292 144.216 221.04L146.268 215.352H147.96L144.288 225H142.47ZM150.297 211.734C150.537 211.734 150.747 211.818 150.927 211.986C151.119 212.142 151.215 212.394 151.215 212.742C151.215 213.078 151.119 213.33 150.927 213.498C150.747 213.666 150.537 213.75 150.297 213.75C150.033 213.75 149.811 213.666 149.631 213.498C149.451 213.33 149.361 213.078 149.361 212.742C149.361 212.394 149.451 212.142 149.631 211.986C149.811 211.818 150.033 211.734 150.297 211.734ZM151.071 215.352V225H149.487V215.352H151.071ZM158.628 215.172C158.808 215.172 159 215.184 159.204 215.208C159.42 215.22 159.606 215.244 159.762 215.28L159.564 216.738C159.408 216.702 159.234 216.672 159.042 216.648C158.862 216.624 158.688 216.612 158.52 216.612C158.028 216.612 157.566 216.75 157.134 217.026C156.702 217.29 156.354 217.668 156.09 218.16C155.838 218.64 155.712 219.204 155.712 219.852V225H154.128V215.352H155.424L155.604 217.116H155.676C155.988 216.588 156.39 216.132 156.882 215.748C157.374 215.364 157.956 215.172 158.628 215.172ZM169.6 220.158C169.6 221.754 169.192 222.99 168.376 223.866C167.572 224.742 166.48 225.18 165.1 225.18C164.248 225.18 163.486 224.988 162.814 224.604C162.154 224.208 161.632 223.638 161.248 222.894C160.864 222.138 160.672 221.226 160.672 220.158C160.672 218.562 161.074 217.332 161.878 216.468C162.682 215.604 163.774 215.172 165.154 215.172C166.03 215.172 166.798 215.37 167.458 215.766C168.13 216.15 168.652 216.714 169.024 217.458C169.408 218.19 169.6 219.09 169.6 220.158ZM162.31 220.158C162.31 221.298 162.532 222.204 162.976 222.876C163.432 223.536 164.152 223.866 165.136 223.866C166.108 223.866 166.822 223.536 167.278 222.876C167.734 222.204 167.962 221.298 167.962 220.158C167.962 219.018 167.734 218.124 167.278 217.476C166.822 216.828 166.102 216.504 165.118 216.504C164.134 216.504 163.42 216.828 162.976 217.476C162.532 218.124 162.31 219.018 162.31 220.158ZM176.754 215.172C177.906 215.172 178.776 215.454 179.364 216.018C179.952 216.57 180.246 217.47 180.246 218.718V225H178.68V218.826C178.68 217.278 177.96 216.504 176.52 216.504C175.452 216.504 174.714 216.804 174.306 217.404C173.898 218.004 173.694 218.868 173.694 219.996V225H172.11V215.352H173.388L173.622 216.666H173.712C174.024 216.162 174.456 215.79 175.008 215.55C175.56 215.298 176.142 215.172 176.754 215.172ZM193.821 215.172C194.913 215.172 195.729 215.454 196.269 216.018C196.809 216.57 197.079 217.47 197.079 218.718V225H195.513V218.79C195.513 217.266 194.859 216.504 193.551 216.504C192.615 216.504 191.943 216.774 191.535 217.314C191.139 217.854 190.941 218.64 190.941 219.672V225H189.375V218.79C189.375 217.266 188.715 216.504 187.395 216.504C186.423 216.504 185.751 216.804 185.379 217.404C185.007 218.004 184.821 218.868 184.821 219.996V225H183.237V215.352H184.515L184.749 216.666H184.839C185.139 216.162 185.541 215.79 186.045 215.55C186.561 215.298 187.107 215.172 187.683 215.172C189.195 215.172 190.179 215.712 190.635 216.792H190.725C191.049 216.24 191.487 215.832 192.039 215.568C192.603 215.304 193.197 215.172 193.821 215.172ZM203.785 215.172C204.613 215.172 205.321 215.352 205.909 215.712C206.509 216.072 206.965 216.582 207.277 217.242C207.601 217.89 207.763 218.652 207.763 219.528V220.482H201.157C201.181 221.574 201.457 222.408 201.985 222.984C202.525 223.548 203.275 223.83 204.235 223.83C204.847 223.83 205.387 223.776 205.855 223.668C206.335 223.548 206.827 223.38 207.331 223.164V224.55C206.839 224.766 206.353 224.922 205.873 225.018C205.393 225.126 204.823 225.18 204.163 225.18C203.251 225.18 202.441 224.994 201.733 224.622C201.037 224.25 200.491 223.698 200.095 222.966C199.711 222.222 199.519 221.316 199.519 220.248C199.519 219.192 199.693 218.286 200.041 217.53C200.401 216.774 200.899 216.192 201.535 215.784C202.183 215.376 202.933 215.172 203.785 215.172ZM203.767 216.468C203.011 216.468 202.411 216.714 201.967 217.206C201.535 217.686 201.277 218.358 201.193 219.222H206.107C206.095 218.406 205.903 217.746 205.531 217.242C205.159 216.726 204.571 216.468 203.767 216.468ZM214.863 215.172C216.015 215.172 216.885 215.454 217.473 216.018C218.061 216.57 218.355 217.47 218.355 218.718V225H216.789V218.826C216.789 217.278 216.069 216.504 214.629 216.504C213.561 216.504 212.823 216.804 212.415 217.404C212.007 218.004 211.803 218.868 211.803 219.996V225H210.219V215.352H211.497L211.731 216.666H211.821C212.133 216.162 212.565 215.79 213.117 215.55C213.669 215.298 214.251 215.172 214.863 215.172ZM224.568 223.884C224.808 223.884 225.054 223.866 225.306 223.83C225.558 223.782 225.762 223.734 225.918 223.686V224.892C225.75 224.976 225.51 225.042 225.198 225.09C224.886 225.15 224.586 225.18 224.298 225.18C223.794 225.18 223.326 225.096 222.894 224.928C222.474 224.748 222.132 224.442 221.868 224.01C221.604 223.578 221.472 222.972 221.472 222.192V216.576H220.104V215.82L221.49 215.19L222.12 213.138H223.056V215.352H225.846V216.576H223.056V222.156C223.056 222.744 223.194 223.182 223.47 223.47C223.758 223.746 224.124 223.884 224.568 223.884Z" fill="#FBFAF7"/>
<g clip-path="url(#clip0_1_533)">
<path d="M125.92 21.4942C116.73 48.1236 108.94 76.2707 102.7 105.459C101.26 112.182 99.88 119.171 100.01 126.353C100.14 133.535 102.09 141.071 105.76 144.177C107.84 145.941 110.22 146.135 112.52 146.241C133.91 147.159 155.37 142.341 175.94 131.982C184.25 127.8 193.9 119.453 194.34 104.224C194.64 93.7589 190.28 84.9883 187.59 75.6354C183.21 60.406 183.03 41.7707 177.37 27.9177C172.25 15.3707 165.61 2.27662 156.89 0.935452C151.74 0.141335 146.1 -0.91749 140.41 1.42957C134.16 3.98839 128.91 11.4707 125.92 21.4942Z" fill="#F7BC28"/>
<path d="M132.5 24.3707C128.73 43.5002 127.18 64.2884 128 84.7237C128.4 94.5707 129.41 104.7 132.4 112.694C136.23 122.947 143.1 128.259 149.57 126.847C156.04 125.435 161.96 117.724 165.54 107.118C170.77 91.6413 171 71.8237 170.3 53.3296C169.67 36.8825 167.59 18.0531 160.07 10.5002C154.16 4.5708 147.02 7.92374 140.61 11.4002L132.5 24.3707Z" fill="#FFC9A0"/>
<path d="M123.41 64.606C132.31 64.6766 142.49 57.4943 144.73 53.7354C151.48 42.3531 152.16 18.7942 151.96 3.14136L130.81 16.5178L123.56 40.5531L123.41 64.606Z" fill="#F7BC28"/>
<path d="M147.17 3.12378C147.17 3.12378 156.18 48.3885 175.11 54.8826L172.13 35.4002L164.63 10.0238L147.17 3.12378Z" fill="#F7BC28"/>
<path d="M158.12 52.1118C157.62 51.9706 157.13 52.4294 156.91 53.2412C156.86 53.4353 156.8 53.6294 156.76 53.8412C156.62 54.5118 156.63 55.4118 156.99 55.7471C157.13 55.8882 157.3 55.8882 157.46 55.8882C159.14 55.9412 160.81 56.3471 162.45 57.0353C163.28 57.3882 164.1 57.8118 164.91 58.3235C165.11 58.4471 165.86 59.1882 166.04 59.0647C166.38 58.8529 166.21 57.7765 166.07 57.3882C165.88 56.8765 165.57 56.5412 165.28 56.2235L165.2 56.1353C163.55 54.3529 161.71 53.1353 159.8 52.6059L158.12 52.1118Z" fill="#F7BC28"/>
<path d="M142.56 8.75317C135.99 8.77082 129.24 27.3709 126.92 36.7061C124.33 47.1356 119.75 58.3061 116.6 68.2238C113.52 77.9297 110.46 87.7238 108.12 98.0826C106.96 103.2 105.99 108.459 105.31 113.841C104.7 118.606 104.82 119.753 104.46 124.677C104.05 130.271 104.18 136.818 107.36 137.859C110.48 138.883 116.22 138.636 119.34 139.359C119.92 139.5 120.18 137.912 119.59 137.771C115.07 136.694 107.59 140.118 105.8 129.883C104.98 125.188 105.52 120.018 106.09 115.341C106.7 110.294 112.82 91.0591 113.85 86.2414C118.08 66.5297 121.24 63.2826 126.34 44.2944C129.19 33.6885 132.27 21.4944 137.66 14.1179C138.5 12.9532 139.43 11.9826 140.45 11.4355C141.32 10.9767 142.69 10.3767 143.44 10.0238C144.39 9.54729 144.17 8.75317 142.56 8.75317Z" fill="white"/>
<path d="M133.05 135.547C132.9 135.547 132.76 135.53 132.61 135.512C129.71 135.018 125.08 133.659 122.47 131.771C120.12 130.077 117.54 127.659 116.21 123.689C113.92 116.894 114.3 106.218 117.37 100.324C117.77 99.5474 117.92 97.6592 117.51 98.4356C114.86 103.536 113.45 109.13 113.92 115.836C114.24 120.336 114.13 124.747 115.5 127.059C117.18 129.9 120.61 132.283 122.76 133.747C125.37 135.512 128.87 136.147 131.64 136.589C132.23 136.694 135.06 136.589 134.69 135.565H133.05V135.547Z" fill="white"/>
<path d="M123.26 88.8709C121.89 95.4532 120.35 106.289 121.22 111.671C121.73 114.794 125.1 119.524 127.79 123.477C128.25 124.147 129.25 124.641 128.79 123.953C126.23 120.194 123.39 116.012 122.5 110.083C121.49 103.394 122.57 94.6062 123.89 88.3062C124.09 87.3179 123.47 87.8826 123.26 88.8709Z" fill="white"/>
<path d="M125.99 57.7413C129.32 56.8766 132.46 54.7413 135.52 52.3413C138.35 50.1355 142.89 46.4119 145.16 42.6002C147.41 38.7884 147.9 32.259 148.91 27.1237C150.01 21.5825 149.83 18.4943 149.85 12.6354C149.85 11.5766 149.19 8.73541 149.19 9.79423C149.19 26.2943 147.17 35.7531 142.59 43.1472C140.42 46.6413 137.7 48.8649 135.04 50.9296C132.05 53.259 128.98 55.3237 125.73 56.1531C125.15 56.3119 125.4 57.9002 125.99 57.7413Z" fill="white"/>
<path d="M132.2 39.9883C132.99 34.8001 136.64 29.5765 138.74 25.6236C141.03 21.3354 141.53 19.8883 144.31 16.6766C144.81 16.0942 145.29 13.4825 144.79 14.0648C141.81 17.506 137.97 22.6765 135.58 27.3354C133.45 31.4824 132.1 35.8765 131.91 38.5765C131.84 39.6177 131.53 42.3707 131.9 42.6177L132.2 39.9883Z" fill="white"/>
<path d="M139.82 34.9414C142.74 28.412 146.05 20.3297 145.55 15.0002C145.45 13.9767 144.74 13.5179 144.65 14.5591C144 22.765 140.95 30.9532 138.13 37.2885C137.76 38.1003 138.53 37.8355 138.9 37.0061L139.82 34.9414Z" fill="white"/>
<path d="M177.22 55.0945C166.72 50.1533 158.31 34.4121 156.12 15.6356C155.97 15.9885 155.82 16.3238 155.67 16.6767C162.34 15.6003 168.2 23.0298 172.02 32.1003C176.41 42.5298 178.21 55.465 180.6 67.5356C181.84 73.7827 183.37 79.6768 185.04 85.6062C186.68 91.4297 188.37 97.8003 187.93 104.471C187.2 115.624 180.86 121.977 175.45 125.383C167.13 130.624 158.1 132.953 149.29 133.094C148.69 133.112 147.31 135.565 147.9 135.565C156.33 135.424 163.65 133.677 171.69 129.177C177.21 126.089 186.63 118.394 188.81 108.194C190.1 102.177 190.24 96.8827 188.89 91.1121C187.37 84.5827 183.89 78.3886 182.45 71.7886C179.67 59.0121 176.44 40.0239 174.81 35.418C169.92 21.5121 163.23 13.8179 155.68 15.0356C155.37 15.0885 155.17 15.512 155.23 16.0767C158.4 42.9709 166.18 51.6003 176.98 56.665C177.56 56.9474 177.8 55.3768 177.22 55.0945Z" fill="white"/>
<path d="M147.75 127.747C154.31 128.718 164.89 127.641 171.16 123.547C176.24 120.23 177.37 115.324 179.61 106.359C180.86 101.347 181.73 101.824 179.55 90.5471C179.36 89.5413 178.39 89.206 178.7 90.106C181.69 98.9295 177.81 110.912 173.93 116.559C169.56 122.93 163.93 125.753 158.36 126.477C154.83 126.935 151.28 126.635 147.76 126.106C147.15 126.018 147.15 127.659 147.75 127.747Z" fill="white"/>
<path d="M183.28 109.659C185.97 103.465 184.98 99.2474 184.01 91.8356C182.87 83.1533 179.94 75.6004 177.25 68.2239C176.93 67.3415 176.12 68.1533 176.45 69.0533C179.01 76.0592 181.76 83.1356 182.98 91.2886C184.07 98.5768 184.35 104.542 182 112.042C181.71 112.959 181.55 114.547 181.91 113.718L183.28 109.659Z" fill="white"/>
<path d="M164.5 114.794C168.64 112.677 172.35 103.43 174.03 96.5473C176.08 88.0944 173.7 83.1002 172.55 74.3297C172.41 73.3061 171.52 73.7297 171.65 74.7708C172.74 83.0473 173.05 92.0297 171.2 100.041C169.67 106.659 166.38 111.106 162.69 114.336C162.34 114.636 161.63 115.959 161.63 115.959L164.5 114.794Z" fill="white"/>
<path d="M162.74 29.3649C164.38 30.6532 166.24 33.0355 167.65 35.612C169.11 38.2943 172.44 45.3355 173.68 48.3355C176.08 54.1943 176.05 56.4179 177.5 63.1767C177.71 64.1473 178.61 63.7238 178.4 62.7355C176.85 55.4826 174.76 48.6355 172.14 42.4238C170.87 39.4061 170.95 38.0826 169.45 35.4002C168.01 32.8238 166.11 30.1061 164.1 29.0649C163.52 28.7649 162.16 29.0649 162.74 29.3649Z" fill="white"/>
<path d="M129.65 63.6355C125.68 64.7826 124.25 64.6943 120.61 67.9414C118 70.2708 115.25 73.659 114.83 78.7767C114.29 85.359 118.02 90.8296 121.72 92.1002C125.42 93.3708 129.24 91.9414 133 92.4708" fill="#FFC9A0"/>
<path d="M169.25 53.1355C172.61 52.5355 176.03 53.3296 179.19 55.4296C182.35 57.5296 185.03 63.1767 184.46 69.0355C183.84 75.3531 180.04 78.8649 176.62 81.0002C173.41 82.9943 170.12 84.6002 166.79 85.8002" fill="#FFC9A0"/>
<path d="M140.87 124.218L143.6 149.365H151.96L154.98 116.806L140.87 124.218Z" fill="#FFC9A0"/>
<path d="M132.69 102.247C132.57 102.441 132.39 102.441 132.27 102.247C131.32 100.765 130.21 99.6176 129.22 98.2059C128.16 96.6882 127.2 94.7471 126.96 92.3823C126.51 87.9353 129.09 84.9176 131.18 87.7765C131.77 88.5706 132.23 89.6294 132.66 90.7059C132.7 90.8118 132.81 90.7588 132.8 90.6176C132.72 89.3823 132.98 88.0765 133.44 87.1235C134.23 85.4471 135.91 84.0176 137.18 84.4412C138.97 85.0235 138.93 88.6765 138.44 91.0765C137.85 93.9706 136.16 96.5294 134.92 98.5588L132.69 102.247Z" fill="#F1673C"/>
<path d="M165.54 99.5472C165.41 99.7237 165.23 99.6708 165.13 99.459C164.28 97.8002 163.26 96.4414 162.37 94.8355C161.41 93.1237 160.59 90.9884 160.5 88.5884C160.34 84.0708 163.1 81.6178 165 84.8649C165.53 85.7825 165.92 86.9119 166.28 88.0766C166.32 88.2002 166.42 88.1472 166.42 88.0237C166.42 86.7708 166.77 85.5355 167.29 84.6708C168.19 83.1708 169.94 82.0943 171.18 82.7649C172.92 83.7178 172.64 87.3178 172 89.6119C171.22 92.3649 169.38 94.5531 168.02 96.3355L165.54 99.5472Z" fill="#F1673C"/>
<path d="M153.84 108.124C157.03 105.759 159.53 101.206 160.74 95.4886C160.86 94.9062 160.6 94.2357 160.29 94.0768C159.93 93.9004 159.61 94.2886 159.49 94.871C158.46 99.7592 156.23 103.889 153.5 105.9C153.18 106.147 152.94 106.659 153.05 107.312C153.12 107.859 153.51 108.371 153.84 108.124Z" fill="#010101"/>
<path d="M154.36 66.9886C154.92 71.1886 157.18 74.7533 159.73 73.7298C162.09 72.7769 163.12 68.3475 163.8 64.7122C163.48 64.9416 163.16 65.171 162.85 65.4004C164.39 66.7945 165.93 68.171 167.47 69.5651C168.21 70.2357 168.87 68.2592 168.13 67.5886C166.59 66.1945 165.05 64.8181 163.51 63.4239C163.12 63.071 162.69 63.371 162.56 64.1122C162.06 66.7769 161.38 70.3239 159.72 71.3651C157.76 72.6004 156.05 69.5298 155.63 66.3886C155.42 64.9416 154.16 65.5592 154.36 66.9886Z" fill="#010101"/>
<path d="M161.89 69.7059C161.95 69.7765 162 69.8471 162.05 69.9177C162.14 70.0412 162.07 69.953 162.02 69.8824C162.06 69.9353 162.09 69.9883 162.13 70.0412C162.26 70.2354 162.4 70.4118 162.53 70.6059C162.84 71.0471 163.14 71.5059 163.45 71.9471C164.03 72.7942 164.6 73.6589 165.21 74.4354C165.49 74.7883 165.95 74.5412 166.1 74.0295C166.28 73.4295 166.16 72.8295 165.87 72.4589C165.81 72.3883 165.76 72.3177 165.71 72.2471C165.62 72.1236 165.69 72.2118 165.74 72.2824C165.7 72.2295 165.67 72.1765 165.63 72.1236C165.5 71.9295 165.36 71.753 165.23 71.5589C164.92 71.1177 164.62 70.6589 164.31 70.2177C163.73 69.3706 163.16 68.5059 162.55 67.7295C162.27 67.3765 161.81 67.6236 161.66 68.1354C161.48 68.7177 161.6 69.3177 161.89 69.7059Z" fill="#010101"/>
<path d="M142.97 69.9357C142.55 73.0769 140.84 76.1474 138.88 74.9121C137.22 73.871 136.54 70.3239 136.04 67.6592C135.9 66.9357 135.47 66.618 135.09 66.971C133.55 68.3651 132.01 69.7416 130.47 71.1357C129.72 71.8063 130.38 73.7827 131.13 73.1122C132.67 71.718 134.21 70.3416 135.75 68.9474C135.43 68.718 135.11 68.4886 134.8 68.2592C135.48 71.8945 136.51 76.3063 138.87 77.2769C141.42 78.318 143.68 74.7357 144.24 70.5357C144.42 69.1239 143.16 68.5063 142.97 69.9357Z" fill="#010101"/>
<path d="M136.03 71.2766C135.42 72.0531 134.85 72.9178 134.27 73.7649C133.96 74.2061 133.66 74.6649 133.35 75.1061C133.22 75.3002 133.09 75.4766 132.95 75.6708C132.92 75.7237 132.89 75.759 132.85 75.8119C132.81 75.8649 132.99 75.6355 132.86 75.7943C132.81 75.8649 132.75 75.9355 132.7 76.0061C132.43 76.359 132.26 77.0119 132.47 77.5766C132.65 78.0531 133.07 78.3708 133.36 77.9825C133.97 77.2061 134.54 76.3414 135.12 75.4943C135.43 75.0531 135.73 74.5943 136.04 74.1531C136.17 73.959 136.3 73.7825 136.44 73.5884C136.47 73.5355 136.5 73.5002 136.54 73.4472C136.58 73.3943 136.4 73.6237 136.53 73.4649C136.58 73.3943 136.64 73.3237 136.69 73.2531C136.96 72.9002 137.13 72.2472 136.92 71.6825C136.75 71.2061 136.33 70.9061 136.03 71.2766Z" fill="#010101"/>
<path d="M173.58 61.3767C174.76 61.059 176.02 61.4473 177.17 61.959C178.31 62.4708 179.48 63.1237 180.15 64.9767C180.5 65.9473 180.63 67.0237 180.4 68.1355C180.19 69.159 179.8 70.1296 179.38 70.9237C178.64 72.3002 177.68 73.2002 176.71 73.9237C175.55 74.7885 174.34 75.4414 173.19 76.3414C172.64 76.7649 173.12 78.1767 173.66 77.7533C175.94 75.9708 178.64 75.1237 180.31 71.559C181.24 69.5826 181.82 67.1649 181.14 64.6943C180.51 62.4355 179.29 61.3237 177.98 60.6355C176.5 59.859 174.89 59.3826 173.35 59.7885C172.74 59.9473 172.99 61.5355 173.58 61.3767Z" fill="#010101"/>
<path d="M174.4 70.8C174.76 70.6765 175.12 70.3765 175.44 70.0942C175.89 69.7236 176.32 69.2647 176.71 68.7177C177.06 68.2236 177.39 67.553 177.42 66.7412C177.45 65.6647 176.89 65.0295 176.39 64.6589C175.68 64.1471 174.89 64.0589 174.13 63.9353C173.89 63.9 173.66 64.3412 173.67 64.7471C173.68 65.2236 173.87 65.5236 174.13 65.5589C174.26 65.5765 174.39 65.5942 174.52 65.6118C174.6 65.6295 174.67 65.6295 174.75 65.6471C174.78 65.6471 174.81 65.6647 174.83 65.6647C174.85 65.6647 174.99 65.7 174.94 65.6824C174.87 65.6648 175.01 65.7 175.01 65.7C175.05 65.7177 175.1 65.7177 175.14 65.7353C175.21 65.753 175.29 65.7706 175.36 65.8059C175.52 65.8589 175.67 65.9295 175.83 66C175.9 66.0353 175.96 66.0706 176.03 66.1236C176.06 66.1412 176.08 66.1589 176.11 66.1765C176.01 66.1059 176.13 66.1942 176.15 66.2118C176.21 66.2647 176.27 66.3177 176.32 66.3706C176.35 66.4059 176.37 66.4236 176.4 66.4589C176.51 66.5824 176.36 66.3883 176.41 66.4765C176.44 66.5295 176.47 66.5824 176.49 66.6177C176.55 66.7059 176.43 66.4412 176.47 66.5648C176.48 66.5824 176.48 66.6 176.49 66.6177C176.55 66.7765 176.46 66.4236 176.49 66.6C176.48 66.4236 176.53 66.8295 176.49 66.6C176.49 66.6177 176.48 66.6883 176.49 66.6883C176.48 66.6706 176.52 66.4765 176.5 66.5648C176.49 66.6177 176.48 66.6706 176.47 66.7236C176.45 66.8648 176.53 66.5295 176.49 66.653C176.48 66.6706 176.47 66.7059 176.47 66.7412C176.45 66.8118 176.43 66.8647 176.41 66.9177C176.36 67.0412 176.49 66.7589 176.43 66.8824C176.42 66.9 176.4 66.9353 176.39 66.9706C176.36 67.0236 176.33 67.0765 176.3 67.1295C176.23 67.253 176.15 67.3765 176.07 67.5C176.05 67.5353 176.01 67.6059 176.1 67.4647C176.08 67.5 176.05 67.5353 176.03 67.553C175.99 67.6059 175.95 67.6589 175.91 67.7118C175.82 67.8177 175.72 67.9236 175.63 68.0295C175.45 68.2236 175.26 68.4 175.07 68.5589C174.97 68.6471 174.87 68.7353 174.76 68.8059C174.75 68.8236 174.73 68.8412 174.71 68.8412C174.85 68.7706 174.74 68.8236 174.7 68.8412C174.66 68.8765 174.61 68.9118 174.57 68.9295C174.44 69.0177 174.3 69.1059 174.17 69.1589C173.93 69.2471 173.77 69.7765 173.85 70.1647C173.91 70.6942 174.15 70.8883 174.4 70.8Z" fill="#010101"/>
<path d="M125.87 86.0474C124.25 86.4004 122.62 86.1709 121.05 85.3239C119.93 84.7239 117.75 83.5239 118.05 80.8062C118.19 79.5357 118.71 78.4592 119.21 77.5768C119.72 76.6768 120.27 75.8474 120.87 75.1415C122.1 73.6592 123.47 72.6357 124.92 72.0709C125.5 71.8415 125.26 70.271 124.67 70.4827C122.14 71.471 119.59 73.9239 117.97 77.5415C117.19 79.2886 116.69 81.6886 117.52 83.6651C118.28 85.4827 119.76 86.3651 120.94 86.9827C122.53 87.8121 124.21 88.0415 125.85 87.6886C126.46 87.5651 126.47 85.9239 125.87 86.0474Z" fill="#010101"/>
<path d="M123.95 75.5119C123.32 75.6355 122.72 75.9355 122.15 76.4119C121.63 76.8531 121.09 77.4707 120.73 78.2825C120.32 79.1825 120.25 80.2943 120.54 81.3355C120.79 82.2531 121.28 82.9237 121.83 83.2237C122.55 83.6296 123.32 83.4178 124.05 83.2237C124.3 83.1531 124.44 82.606 124.37 82.2178C124.3 81.7413 124.05 81.5825 123.8 81.6531C123.2 81.8119 122.54 81.9884 121.96 81.5825C122.01 81.6178 121.86 81.4943 121.85 81.4766C121.79 81.4237 121.74 81.3531 121.68 81.2825C121.71 81.3178 121.7 81.3002 121.66 81.2472C121.64 81.2119 121.61 81.159 121.59 81.1237C121.58 81.106 121.47 80.8943 121.5 80.9649C121.46 80.8766 121.43 80.7708 121.39 80.6825C121.37 80.6296 121.36 80.5766 121.35 80.5237C121.36 80.5943 121.36 80.5766 121.34 80.4884C121.32 80.3825 121.3 80.2766 121.29 80.1707C121.3 80.3119 121.29 80.0119 121.29 79.9766C121.29 79.8707 121.29 79.8707 121.29 79.9413C121.3 79.8884 121.3 79.8355 121.31 79.7825C121.32 79.6943 121.33 79.659 121.37 79.5531C121.43 79.359 121.51 79.2178 121.61 79.0413C121.82 78.6884 122.06 78.406 122.31 78.159C122.81 77.6472 123.4 77.2943 123.96 77.1884C124.21 77.1355 124.42 76.8531 124.42 76.3766C124.41 75.9355 124.2 75.4766 123.95 75.5119Z" fill="#010101"/>
<path d="M149.59 78.3003C150.4 81.9709 151.32 85.6415 151.98 89.3121C152.14 90.2121 151.75 91.1121 151.22 91.1297C150.28 91.1474 149.17 91.165 148.25 91.165C147.78 91.165 147.41 90.4591 147.45 89.6121L148.05 78.6533C148.13 77.1709 149.28 76.9062 149.59 78.3003Z" fill="#E48929"/>
<path d="M154.25 124.659C154.25 124.659 147.7 129.3 140.86 124.218L141.38 128.982L153.14 136.588L154.25 124.659Z" fill="#EFB086"/>
<path d="M149.81 12.0706C153.13 11.9117 156.12 9.77645 159.41 10.7647C161.69 11.4529 164.37 13.5353 166.23 15.7941C170.08 20.4706 173 25.3941 176.01 31.7647C176.42 32.647 180.3 42.9176 177.06 31.6941C174.85 24.0706 169.67 18.5647 165.68 13.747C163.78 11.4529 161.97 9.74116 159.67 9.05292C156.29 8.02939 149.11 7.19998 149.14 8.32939C149.19 9.77645 149.19 11.0823 149.19 11.0823L149.81 12.0706Z" fill="white"/>
</g>
<path d="M85.3282 186.39C83.9482 186.39 82.8622 186.852 82.0702 187.776C81.2782 188.7 80.8822 189.966 80.8822 191.574C80.8822 193.17 81.2482 194.436 81.9802 195.372C82.7242 196.296 83.8342 196.758 85.3102 196.758C85.8742 196.758 86.4082 196.71 86.9122 196.614C87.4162 196.518 87.9082 196.398 88.3882 196.254V197.658C87.9082 197.838 87.4102 197.97 86.8942 198.054C86.3902 198.138 85.7842 198.18 85.0762 198.18C83.7682 198.18 82.6762 197.91 81.8002 197.37C80.9242 196.83 80.2642 196.062 79.8202 195.066C79.3882 194.07 79.1722 192.9 79.1722 191.556C79.1722 190.26 79.4062 189.12 79.8742 188.136C80.3542 187.14 81.0562 186.366 81.9802 185.814C82.9042 185.25 84.0262 184.968 85.3462 184.968C86.7022 184.968 87.8842 185.22 88.8922 185.724L88.2442 187.092C87.8482 186.912 87.4042 186.75 86.9122 186.606C86.4322 186.462 85.9042 186.39 85.3282 186.39ZM95.4773 188.172C95.6573 188.172 95.8493 188.184 96.0533 188.208C96.2693 188.22 96.4553 188.244 96.6113 188.28L96.4133 189.738C96.2573 189.702 96.0833 189.672 95.8913 189.648C95.7113 189.624 95.5373 189.612 95.3693 189.612C94.8773 189.612 94.4153 189.75 93.9833 190.026C93.5513 190.29 93.2033 190.668 92.9393 191.16C92.6873 191.64 92.5613 192.204 92.5613 192.852V198H90.9773V188.352H92.2733L92.4533 190.116H92.5253C92.8373 189.588 93.2393 189.132 93.7313 188.748C94.2233 188.364 94.8053 188.172 95.4773 188.172ZM101.787 188.172C102.615 188.172 103.323 188.352 103.911 188.712C104.511 189.072 104.967 189.582 105.279 190.242C105.603 190.89 105.765 191.652 105.765 192.528V193.482H99.1593C99.1833 194.574 99.4593 195.408 99.9873 195.984C100.527 196.548 101.277 196.83 102.237 196.83C102.849 196.83 103.389 196.776 103.857 196.668C104.337 196.548 104.829 196.38 105.333 196.164V197.55C104.841 197.766 104.355 197.922 103.875 198.018C103.395 198.126 102.825 198.18 102.165 198.18C101.253 198.18 100.443 197.994 99.7353 197.622C99.0393 197.25 98.4933 196.698 98.0973 195.966C97.7133 195.222 97.5213 194.316 97.5213 193.248C97.5213 192.192 97.6953 191.286 98.0433 190.53C98.4033 189.774 98.9013 189.192 99.5373 188.784C100.185 188.376 100.935 188.172 101.787 188.172ZM101.769 189.468C101.013 189.468 100.413 189.714 99.9693 190.206C99.5373 190.686 99.2793 191.358 99.1953 192.222H104.109C104.097 191.406 103.905 190.746 103.533 190.242C103.161 189.726 102.573 189.468 101.769 189.468ZM111.875 188.19C113.051 188.19 113.921 188.448 114.485 188.964C115.049 189.48 115.331 190.302 115.331 191.43V198H114.179L113.873 196.632H113.801C113.381 197.16 112.937 197.55 112.469 197.802C112.013 198.054 111.377 198.18 110.561 198.18C109.685 198.18 108.959 197.952 108.383 197.496C107.807 197.028 107.519 196.302 107.519 195.318C107.519 194.358 107.897 193.62 108.653 193.104C109.409 192.576 110.573 192.288 112.145 192.24L113.783 192.186V191.61C113.783 190.806 113.609 190.248 113.261 189.936C112.913 189.624 112.421 189.468 111.785 189.468C111.281 189.468 110.801 189.546 110.345 189.702C109.889 189.846 109.463 190.014 109.067 190.206L108.581 189.018C109.001 188.79 109.499 188.598 110.075 188.442C110.651 188.274 111.251 188.19 111.875 188.19ZM112.343 193.338C111.143 193.386 110.309 193.578 109.841 193.914C109.385 194.25 109.157 194.724 109.157 195.336C109.157 195.876 109.319 196.272 109.643 196.524C109.979 196.776 110.405 196.902 110.921 196.902C111.737 196.902 112.415 196.68 112.955 196.236C113.495 195.78 113.765 195.084 113.765 194.148V193.284L112.343 193.338ZM121.533 196.884C121.773 196.884 122.019 196.866 122.271 196.83C122.523 196.782 122.727 196.734 122.883 196.686V197.892C122.715 197.976 122.475 198.042 122.163 198.09C121.851 198.15 121.551 198.18 121.263 198.18C120.759 198.18 120.291 198.096 119.859 197.928C119.439 197.748 119.097 197.442 118.833 197.01C118.569 196.578 118.437 195.972 118.437 195.192V189.576H117.069V188.82L118.455 188.19L119.085 186.138H120.021V188.352H122.811V189.576H120.021V195.156C120.021 195.744 120.159 196.182 120.435 196.47C120.723 196.746 121.089 196.884 121.533 196.884ZM128.541 188.172C129.369 188.172 130.077 188.352 130.665 188.712C131.265 189.072 131.721 189.582 132.033 190.242C132.357 190.89 132.519 191.652 132.519 192.528V193.482H125.913C125.937 194.574 126.213 195.408 126.741 195.984C127.281 196.548 128.031 196.83 128.991 196.83C129.603 196.83 130.143 196.776 130.611 196.668C131.091 196.548 131.583 196.38 132.087 196.164V197.55C131.595 197.766 131.109 197.922 130.629 198.018C130.149 198.126 129.579 198.18 128.919 198.18C128.007 198.18 127.197 197.994 126.489 197.622C125.793 197.25 125.247 196.698 124.851 195.966C124.467 195.222 124.275 194.316 124.275 193.248C124.275 192.192 124.449 191.286 124.797 190.53C125.157 189.774 125.655 189.192 126.291 188.784C126.939 188.376 127.689 188.172 128.541 188.172ZM128.523 189.468C127.767 189.468 127.167 189.714 126.723 190.206C126.291 190.686 126.033 191.358 125.949 192.222H130.863C130.851 191.406 130.659 190.746 130.287 190.242C129.915 189.726 129.327 189.468 128.523 189.468ZM143.305 188.19C144.481 188.19 145.351 188.448 145.915 188.964C146.479 189.48 146.761 190.302 146.761 191.43V198H145.609L145.303 196.632H145.231C144.811 197.16 144.367 197.55 143.899 197.802C143.443 198.054 142.807 198.18 141.991 198.18C141.115 198.18 140.389 197.952 139.813 197.496C139.237 197.028 138.949 196.302 138.949 195.318C138.949 194.358 139.327 193.62 140.083 193.104C140.839 192.576 142.003 192.288 143.575 192.24L145.213 192.186V191.61C145.213 190.806 145.039 190.248 144.691 189.936C144.343 189.624 143.851 189.468 143.215 189.468C142.711 189.468 142.231 189.546 141.775 189.702C141.319 189.846 140.893 190.014 140.497 190.206L140.011 189.018C140.431 188.79 140.929 188.598 141.505 188.442C142.081 188.274 142.681 188.19 143.305 188.19ZM143.773 193.338C142.573 193.386 141.739 193.578 141.271 193.914C140.815 194.25 140.587 194.724 140.587 195.336C140.587 195.876 140.749 196.272 141.073 196.524C141.409 196.776 141.835 196.902 142.351 196.902C143.167 196.902 143.845 196.68 144.385 196.236C144.925 195.78 145.195 195.084 145.195 194.148V193.284L143.773 193.338ZM164.461 198H162.841V192.006H156.253V198H154.633V185.148H156.253V190.584H162.841V185.148H164.461V198ZM171.485 188.172C172.313 188.172 173.021 188.352 173.609 188.712C174.209 189.072 174.665 189.582 174.977 190.242C175.301 190.89 175.463 191.652 175.463 192.528V193.482H168.857C168.881 194.574 169.157 195.408 169.685 195.984C170.225 196.548 170.975 196.83 171.935 196.83C172.547 196.83 173.087 196.776 173.555 196.668C174.035 196.548 174.527 196.38 175.031 196.164V197.55C174.539 197.766 174.053 197.922 173.573 198.018C173.093 198.126 172.523 198.18 171.863 198.18C170.951 198.18 170.141 197.994 169.433 197.622C168.737 197.25 168.191 196.698 167.795 195.966C167.411 195.222 167.219 194.316 167.219 193.248C167.219 192.192 167.393 191.286 167.741 190.53C168.101 189.774 168.599 189.192 169.235 188.784C169.883 188.376 170.633 188.172 171.485 188.172ZM171.467 189.468C170.711 189.468 170.111 189.714 169.667 190.206C169.235 190.686 168.977 191.358 168.893 192.222H173.807C173.795 191.406 173.603 190.746 173.231 190.242C172.859 189.726 172.271 189.468 171.467 189.468ZM181.573 188.19C182.749 188.19 183.619 188.448 184.183 188.964C184.747 189.48 185.029 190.302 185.029 191.43V198H183.877L183.571 196.632H183.499C183.079 197.16 182.635 197.55 182.167 197.802C181.711 198.054 181.075 198.18 180.259 198.18C179.383 198.18 178.657 197.952 178.081 197.496C177.505 197.028 177.217 196.302 177.217 195.318C177.217 194.358 177.595 193.62 178.351 193.104C179.107 192.576 180.271 192.288 181.843 192.24L183.481 192.186V191.61C183.481 190.806 183.307 190.248 182.959 189.936C182.611 189.624 182.119 189.468 181.483 189.468C180.979 189.468 180.499 189.546 180.043 189.702C179.587 189.846 179.161 190.014 178.765 190.206L178.279 189.018C178.699 188.79 179.197 188.598 179.773 188.442C180.349 188.274 180.949 188.19 181.573 188.19ZM182.041 193.338C180.841 193.386 180.007 193.578 179.539 193.914C179.083 194.25 178.855 194.724 178.855 195.336C178.855 195.876 179.017 196.272 179.341 196.524C179.677 196.776 180.103 196.902 180.619 196.902C181.435 196.902 182.113 196.68 182.653 196.236C183.193 195.78 183.463 195.084 183.463 194.148V193.284L182.041 193.338ZM189.593 198H188.009V184.32H189.593V198ZM195.871 196.884C196.111 196.884 196.357 196.866 196.609 196.83C196.861 196.782 197.065 196.734 197.221 196.686V197.892C197.053 197.976 196.813 198.042 196.501 198.09C196.189 198.15 195.889 198.18 195.601 198.18C195.097 198.18 194.629 198.096 194.197 197.928C193.777 197.748 193.435 197.442 193.171 197.01C192.907 196.578 192.775 195.972 192.775 195.192V189.576H191.407V188.82L192.793 188.19L193.423 186.138H194.359V188.352H197.149V189.576H194.359V195.156C194.359 195.744 194.497 196.182 194.773 196.47C195.061 196.746 195.427 196.884 195.871 196.884ZM200.737 188.334C200.737 188.814 200.707 189.264 200.647 189.684H200.755C201.067 189.192 201.487 188.82 202.015 188.568C202.555 188.316 203.137 188.19 203.761 188.19C204.937 188.19 205.819 188.472 206.407 189.036C206.995 189.588 207.289 190.482 207.289 191.718V198H205.723V191.826C205.723 190.278 205.003 189.504 203.563 189.504C202.483 189.504 201.739 189.81 201.331 190.422C200.935 191.022 200.737 191.886 200.737 193.014V198H199.153V184.32H200.737V188.334ZM208.768 188.352H210.46L212.548 193.842C212.728 194.322 212.89 194.784 213.034 195.228C213.178 195.66 213.286 196.074 213.358 196.47H213.43C213.502 196.17 213.616 195.78 213.772 195.3C213.928 194.808 214.09 194.316 214.258 193.824L216.22 188.352H217.93L213.772 199.332C213.436 200.244 212.998 200.97 212.458 201.51C211.93 202.05 211.198 202.32 210.262 202.32C209.974 202.32 209.722 202.302 209.506 202.266C209.29 202.242 209.104 202.212 208.948 202.176V200.916C209.08 200.94 209.236 200.964 209.416 200.988C209.608 201.012 209.806 201.024 210.01 201.024C210.562 201.024 211.006 200.868 211.342 200.556C211.69 200.244 211.96 199.83 212.152 199.314L212.656 198.036L208.768 188.352Z" fill="#FBFAF7"/>
<defs>
<clipPath id="clip0_1_533">
<rect width="95" height="150" fill="white" transform="translate(100)"/>
</clipPath>
</defs>
</svg>
