<svg width="295" height="246" viewBox="0 0 295 246" fill="none" xmlns="http://www.w3.org/2000/svg">
<g clip-path="url(#clip0_1_509)">
<path d="M171.766 145H124.234C119.133 145 115 137.464 115 128.163V25.6417C115 16.3402 119.133 8.80396 124.234 8.80396H171.766C176.867 8.80396 181 16.3402 181 25.6417V128.163C181 137.464 176.867 145 171.766 145Z" fill="#F7BC28"/>
<path d="M170.525 53.2296H125.475C123.328 53.2296 121.578 50.0385 121.578 46.1233V26.3433C121.578 22.4281 123.328 19.2371 125.475 19.2371H170.525C172.672 19.2371 174.422 22.4281 174.422 26.3433V46.1233C174.422 50.0385 172.672 53.2296 170.525 53.2296Z" fill="#E48929"/>
<path d="M170.525 92.45H125.475C123.663 92.45 122.198 89.7794 122.198 86.4752V66.6954C122.198 63.3912 123.663 60.7207 125.475 60.7207H170.525C172.337 60.7207 173.802 63.3912 173.802 66.6954V86.4752C173.802 89.7794 172.337 92.45 170.525 92.45Z" fill="#E48929"/>
<path d="M170.525 133.933H125.475C123.328 133.933 121.578 130.742 121.578 126.827V107.047C121.578 103.132 123.328 99.9409 125.475 99.9409H170.525C172.672 99.9409 174.422 103.132 174.422 107.047V126.827C174.422 130.742 172.672 133.933 170.525 133.933Z" fill="#E48929"/>
<path d="M148.348 82.6051C150.171 82.6051 151.649 79.9099 151.649 76.5852C151.649 73.2604 150.171 70.5652 148.348 70.5652C146.524 70.5652 145.046 73.2604 145.046 76.5852C145.046 79.9099 146.524 82.6051 148.348 82.6051Z" fill="#F7BC28"/>
<path d="M148.348 122.957C150.171 122.957 151.649 120.262 151.649 116.937C151.649 113.612 150.171 110.917 148.348 110.917C146.524 110.917 145.046 113.612 145.046 116.937C145.046 120.262 146.524 122.957 148.348 122.957Z" fill="#F7BC28"/>
<path d="M125.263 10.6369C126.902 27.1579 127.944 44.3127 129.682 60.7205H162.433C159.753 31.9784 158.363 21.6133 156.824 3.16853C156.65 1.17695 155.645 -0.2262 154.553 0.0227474L127.013 6.26904C125.847 6.54061 125.052 8.53219 125.263 10.6369Z" fill="#FBFAF7"/>
<path d="M133.541 24.691C139.734 25.0758 145.915 24.5779 152.071 23.1973C153.051 22.9709 153.063 20.142 152.071 20.3684C145.927 21.7489 139.734 22.2468 133.541 21.862C132.549 21.8167 132.549 24.6457 133.541 24.691Z" fill="#194429"/>
<path d="M134.783 36.0069C140.976 36.3915 147.156 35.8936 153.312 34.5132C154.292 34.2868 154.305 31.4579 153.312 31.6843C147.169 33.0647 140.976 33.5626 134.783 33.178C133.79 33.1326 133.79 35.9616 134.783 36.0069Z" fill="#194429"/>
<path d="M136.023 47.3228C142.216 47.7076 148.397 47.2097 154.553 45.8291C155.533 45.6029 155.546 42.774 154.553 43.0002C148.409 44.3807 142.216 44.8786 136.023 44.4938C135.031 44.4487 135.031 47.2777 136.023 47.3228Z" fill="#194429"/>
</g>
<path d="M59.2244 220H54.5804V219.064L56.0924 218.722V208.444L54.5804 208.084V207.148H59.2244V208.084L57.7124 208.444V218.722L59.2244 219.064V220ZM72.074 210.172C73.166 210.172 73.982 210.454 74.522 211.018C75.062 211.57 75.332 212.47 75.332 213.718V220H73.766V213.79C73.766 212.266 73.112 211.504 71.804 211.504C70.868 211.504 70.196 211.774 69.788 212.314C69.392 212.854 69.194 213.64 69.194 214.672V220H67.628V213.79C67.628 212.266 66.968 211.504 65.648 211.504C64.676 211.504 64.004 211.804 63.632 212.404C63.26 213.004 63.074 213.868 63.074 214.996V220H61.49V210.352H62.768L63.002 211.666H63.092C63.392 211.162 63.794 210.79 64.298 210.55C64.814 210.298 65.36 210.172 65.936 210.172C67.448 210.172 68.432 210.712 68.888 211.792H68.978C69.302 211.24 69.74 210.832 70.292 210.568C70.856 210.304 71.45 210.172 72.074 210.172ZM82.9022 210.172C84.0902 210.172 85.0442 210.586 85.7642 211.414C86.4962 212.242 86.8622 213.49 86.8622 215.158C86.8622 216.802 86.4962 218.05 85.7642 218.902C85.0442 219.754 84.0842 220.18 82.8842 220.18C82.1402 220.18 81.5222 220.042 81.0302 219.766C80.5502 219.478 80.1722 219.148 79.8962 218.776H79.7882C79.8122 218.98 79.8362 219.238 79.8602 219.55C79.8842 219.862 79.8962 220.132 79.8962 220.36V224.32H78.3122V210.352H79.6082L79.8242 211.666H79.8962C80.1842 211.246 80.5622 210.892 81.0302 210.604C81.4982 210.316 82.1222 210.172 82.9022 210.172ZM82.6142 211.504C81.6302 211.504 80.9342 211.78 80.5262 212.332C80.1302 212.884 79.9202 213.724 79.8962 214.852V215.158C79.8962 216.346 80.0882 217.264 80.4722 217.912C80.8682 218.548 81.5942 218.866 82.6502 218.866C83.2382 218.866 83.7182 218.704 84.0902 218.38C84.4742 218.056 84.7562 217.618 84.9362 217.066C85.1282 216.502 85.2242 215.86 85.2242 215.14C85.2242 214.036 85.0082 213.154 84.5762 212.494C84.1562 211.834 83.5022 211.504 82.6142 211.504ZM97.7744 215.158C97.7744 216.754 97.3664 217.99 96.5504 218.866C95.7464 219.742 94.6544 220.18 93.2744 220.18C92.4224 220.18 91.6604 219.988 90.9884 219.604C90.3284 219.208 89.8064 218.638 89.4224 217.894C89.0384 217.138 88.8464 216.226 88.8464 215.158C88.8464 213.562 89.2484 212.332 90.0524 211.468C90.8564 210.604 91.9484 210.172 93.3284 210.172C94.2044 210.172 94.9724 210.37 95.6324 210.766C96.3044 211.15 96.8264 211.714 97.1984 212.458C97.5824 213.19 97.7744 214.09 97.7744 215.158ZM90.4844 215.158C90.4844 216.298 90.7064 217.204 91.1504 217.876C91.6064 218.536 92.3264 218.866 93.3104 218.866C94.2824 218.866 94.9964 218.536 95.4524 217.876C95.9084 217.204 96.1364 216.298 96.1364 215.158C96.1364 214.018 95.9084 213.124 95.4524 212.476C94.9964 211.828 94.2764 211.504 93.2924 211.504C92.3084 211.504 91.5944 211.828 91.1504 212.476C90.7064 213.124 90.4844 214.018 90.4844 215.158ZM104.785 210.172C104.965 210.172 105.157 210.184 105.361 210.208C105.577 210.22 105.763 210.244 105.919 210.28L105.721 211.738C105.565 211.702 105.391 211.672 105.199 211.648C105.019 211.624 104.845 211.612 104.677 211.612C104.185 211.612 103.723 211.75 103.291 212.026C102.859 212.29 102.511 212.668 102.247 213.16C101.995 213.64 101.869 214.204 101.869 214.852V220H100.285V210.352H101.581L101.761 212.116H101.833C102.145 211.588 102.547 211.132 103.039 210.748C103.531 210.364 104.113 210.172 104.785 210.172ZM110.942 218.884C111.182 218.884 111.428 218.866 111.68 218.83C111.932 218.782 112.136 218.734 112.292 218.686V219.892C112.124 219.976 111.884 220.042 111.572 220.09C111.26 220.15 110.96 220.18 110.672 220.18C110.168 220.18 109.7 220.096 109.268 219.928C108.848 219.748 108.506 219.442 108.242 219.01C107.978 218.578 107.846 217.972 107.846 217.192V211.576H106.478V210.82L107.864 210.19L108.494 208.138H109.43V210.352H112.22V211.576H109.43V217.156C109.43 217.744 109.568 218.182 109.844 218.47C110.132 218.746 110.498 218.884 110.942 218.884ZM117.878 210.19C119.054 210.19 119.924 210.448 120.488 210.964C121.052 211.48 121.334 212.302 121.334 213.43V220H120.182L119.876 218.632H119.804C119.384 219.16 118.94 219.55 118.472 219.802C118.016 220.054 117.38 220.18 116.564 220.18C115.688 220.18 114.962 219.952 114.386 219.496C113.81 219.028 113.522 218.302 113.522 217.318C113.522 216.358 113.9 215.62 114.656 215.104C115.412 214.576 116.576 214.288 118.148 214.24L119.786 214.186V213.61C119.786 212.806 119.612 212.248 119.264 211.936C118.916 211.624 118.424 211.468 117.788 211.468C117.284 211.468 116.804 211.546 116.348 211.702C115.892 211.846 115.466 212.014 115.07 212.206L114.584 211.018C115.004 210.79 115.502 210.598 116.078 210.442C116.654 210.274 117.254 210.19 117.878 210.19ZM118.346 215.338C117.146 215.386 116.312 215.578 115.844 215.914C115.388 216.25 115.16 216.724 115.16 217.336C115.16 217.876 115.322 218.272 115.646 218.524C115.982 218.776 116.408 218.902 116.924 218.902C117.74 218.902 118.418 218.68 118.958 218.236C119.498 217.78 119.768 217.084 119.768 216.148V215.284L118.346 215.338ZM128.958 210.172C130.11 210.172 130.98 210.454 131.568 211.018C132.156 211.57 132.45 212.47 132.45 213.718V220H130.884V213.826C130.884 212.278 130.164 211.504 128.724 211.504C127.656 211.504 126.918 211.804 126.51 212.404C126.102 213.004 125.898 213.868 125.898 214.996V220H124.314V210.352H125.592L125.826 211.666H125.916C126.228 211.162 126.66 210.79 127.212 210.55C127.764 210.298 128.346 210.172 128.958 210.172ZM138.663 218.884C138.903 218.884 139.149 218.866 139.401 218.83C139.653 218.782 139.857 218.734 140.013 218.686V219.892C139.845 219.976 139.605 220.042 139.293 220.09C138.981 220.15 138.681 220.18 138.393 220.18C137.889 220.18 137.421 220.096 136.989 219.928C136.569 219.748 136.227 219.442 135.963 219.01C135.699 218.578 135.567 217.972 135.567 217.192V211.576H134.199V210.82L135.585 210.19L136.215 208.138H137.151V210.352H139.941V211.576H137.151V217.156C137.151 217.744 137.289 218.182 137.565 218.47C137.853 218.746 138.219 218.884 138.663 218.884ZM157.133 213.448C157.133 215.62 156.539 217.258 155.351 218.362C154.175 219.454 152.531 220 150.419 220H146.837V207.148H150.797C152.093 207.148 153.215 207.388 154.163 207.868C155.111 208.348 155.843 209.056 156.359 209.992C156.875 210.916 157.133 212.068 157.133 213.448ZM155.423 213.502C155.423 211.786 154.997 210.532 154.145 209.74C153.305 208.936 152.111 208.534 150.563 208.534H148.457V218.614H150.203C153.683 218.614 155.423 216.91 155.423 213.502ZM168.157 215.158C168.157 216.754 167.749 217.99 166.933 218.866C166.129 219.742 165.037 220.18 163.657 220.18C162.805 220.18 162.043 219.988 161.371 219.604C160.711 219.208 160.189 218.638 159.805 217.894C159.421 217.138 159.229 216.226 159.229 215.158C159.229 213.562 159.631 212.332 160.435 211.468C161.239 210.604 162.331 210.172 163.711 210.172C164.587 210.172 165.355 210.37 166.015 210.766C166.687 211.15 167.209 211.714 167.581 212.458C167.965 213.19 168.157 214.09 168.157 215.158ZM160.867 215.158C160.867 216.298 161.089 217.204 161.533 217.876C161.989 218.536 162.709 218.866 163.693 218.866C164.665 218.866 165.379 218.536 165.835 217.876C166.291 217.204 166.519 216.298 166.519 215.158C166.519 214.018 166.291 213.124 165.835 212.476C165.379 211.828 164.659 211.504 163.675 211.504C162.691 211.504 161.977 211.828 161.533 212.476C161.089 213.124 160.867 214.018 160.867 215.158ZM174.538 220.18C173.686 220.18 172.924 220.006 172.252 219.658C171.592 219.31 171.07 218.77 170.686 218.038C170.314 217.306 170.128 216.37 170.128 215.23C170.128 214.042 170.326 213.076 170.722 212.332C171.118 211.588 171.652 211.042 172.324 210.694C173.008 210.346 173.782 210.172 174.646 210.172C175.138 210.172 175.612 210.226 176.068 210.334C176.524 210.43 176.896 210.55 177.184 210.694L176.698 212.008C176.41 211.9 176.074 211.798 175.69 211.702C175.306 211.606 174.946 211.558 174.61 211.558C172.714 211.558 171.766 212.776 171.766 215.212C171.766 216.376 171.994 217.27 172.45 217.894C172.918 218.506 173.608 218.812 174.52 218.812C175.048 218.812 175.51 218.758 175.906 218.65C176.314 218.542 176.686 218.41 177.022 218.254V219.658C176.698 219.826 176.338 219.952 175.942 220.036C175.558 220.132 175.09 220.18 174.538 220.18ZM187.38 210.352V220H186.084L185.85 218.722H185.778C185.466 219.226 185.034 219.598 184.482 219.838C183.93 220.066 183.342 220.18 182.718 220.18C181.554 220.18 180.678 219.904 180.09 219.352C179.502 218.788 179.208 217.894 179.208 216.67V210.352H180.81V216.562C180.81 218.098 181.524 218.866 182.952 218.866C184.02 218.866 184.758 218.566 185.166 217.966C185.586 217.366 185.796 216.502 185.796 215.374V210.352H187.38ZM201.027 210.172C202.119 210.172 202.935 210.454 203.475 211.018C204.015 211.57 204.285 212.47 204.285 213.718V220H202.719V213.79C202.719 212.266 202.065 211.504 200.757 211.504C199.821 211.504 199.149 211.774 198.741 212.314C198.345 212.854 198.147 213.64 198.147 214.672V220H196.581V213.79C196.581 212.266 195.921 211.504 194.601 211.504C193.629 211.504 192.957 211.804 192.585 212.404C192.213 213.004 192.027 213.868 192.027 214.996V220H190.443V210.352H191.721L191.955 211.666H192.045C192.345 211.162 192.747 210.79 193.251 210.55C193.767 210.298 194.313 210.172 194.889 210.172C196.401 210.172 197.385 210.712 197.841 211.792H197.931C198.255 211.24 198.693 210.832 199.245 210.568C199.809 210.304 200.403 210.172 201.027 210.172ZM210.991 210.172C211.819 210.172 212.527 210.352 213.115 210.712C213.715 211.072 214.171 211.582 214.483 212.242C214.807 212.89 214.969 213.652 214.969 214.528V215.482H208.363C208.387 216.574 208.663 217.408 209.191 217.984C209.731 218.548 210.481 218.83 211.441 218.83C212.053 218.83 212.593 218.776 213.061 218.668C213.541 218.548 214.033 218.38 214.537 218.164V219.55C214.045 219.766 213.559 219.922 213.079 220.018C212.599 220.126 212.029 220.18 211.369 220.18C210.457 220.18 209.647 219.994 208.939 219.622C208.243 219.25 207.697 218.698 207.301 217.966C206.917 217.222 206.725 216.316 206.725 215.248C206.725 214.192 206.899 213.286 207.247 212.53C207.607 211.774 208.105 211.192 208.741 210.784C209.389 210.376 210.139 210.172 210.991 210.172ZM210.973 211.468C210.217 211.468 209.617 211.714 209.173 212.206C208.741 212.686 208.483 213.358 208.399 214.222H213.313C213.301 213.406 213.109 212.746 212.737 212.242C212.365 211.726 211.777 211.468 210.973 211.468ZM222.07 210.172C223.222 210.172 224.092 210.454 224.68 211.018C225.268 211.57 225.562 212.47 225.562 213.718V220H223.996V213.826C223.996 212.278 223.276 211.504 221.836 211.504C220.768 211.504 220.03 211.804 219.622 212.404C219.214 213.004 219.01 213.868 219.01 214.996V220H217.426V210.352H218.704L218.938 211.666H219.028C219.34 211.162 219.772 210.79 220.324 210.55C220.876 210.298 221.458 210.172 222.07 210.172ZM231.774 218.884C232.014 218.884 232.26 218.866 232.512 218.83C232.764 218.782 232.968 218.734 233.124 218.686V219.892C232.956 219.976 232.716 220.042 232.404 220.09C232.092 220.15 231.792 220.18 231.504 220.18C231 220.18 230.532 220.096 230.1 219.928C229.68 219.748 229.338 219.442 229.074 219.01C228.81 218.578 228.678 217.972 228.678 217.192V211.576H227.31V210.82L228.696 210.19L229.326 208.138H230.262V210.352H233.052V211.576H230.262V217.156C230.262 217.744 230.4 218.182 230.676 218.47C230.964 218.746 231.33 218.884 231.774 218.884ZM241.338 217.336C241.338 218.272 240.99 218.98 240.294 219.46C239.598 219.94 238.662 220.18 237.486 220.18C236.814 220.18 236.232 220.126 235.74 220.018C235.26 219.91 234.834 219.76 234.462 219.568V218.128C234.846 218.32 235.308 218.5 235.848 218.668C236.4 218.824 236.958 218.902 237.522 218.902C238.326 218.902 238.908 218.776 239.268 218.524C239.628 218.26 239.808 217.912 239.808 217.48C239.808 217.24 239.742 217.024 239.61 216.832C239.478 216.64 239.238 216.448 238.89 216.256C238.554 216.064 238.068 215.848 237.432 215.608C236.808 215.368 236.274 215.128 235.83 214.888C235.386 214.648 235.044 214.36 234.804 214.024C234.564 213.688 234.444 213.256 234.444 212.728C234.444 211.912 234.774 211.282 235.434 210.838C236.106 210.394 236.982 210.172 238.062 210.172C238.65 210.172 239.196 210.232 239.7 210.352C240.216 210.46 240.696 210.616 241.14 210.82L240.6 212.08C240.192 211.912 239.766 211.768 239.322 211.648C238.878 211.528 238.422 211.468 237.954 211.468C237.306 211.468 236.808 211.576 236.46 211.792C236.124 211.996 235.956 212.278 235.956 212.638C235.956 212.902 236.034 213.13 236.19 213.322C236.346 213.502 236.604 213.682 236.964 213.862C237.336 214.03 237.828 214.234 238.44 214.474C239.052 214.702 239.574 214.936 240.006 215.176C240.438 215.416 240.768 215.71 240.996 216.058C241.224 216.394 241.338 216.82 241.338 217.336Z" fill="#FBFAF7"/>
<path d="M78.8369 193L74.6069 181.732H74.5349C74.5709 182.104 74.6009 182.608 74.6249 183.244C74.6489 183.868 74.6609 184.522 74.6609 185.206V193H73.1669V180.148H75.5609L79.5209 190.678H79.5929L83.6249 180.148H86.0009V193H84.3989V185.098C84.3989 184.474 84.4109 183.856 84.4349 183.244C84.4709 182.632 84.5009 182.134 84.5249 181.75H84.4529L80.1689 193H78.8369ZM92.935 183.19C94.111 183.19 94.981 183.448 95.545 183.964C96.109 184.48 96.391 185.302 96.391 186.43V193H95.239L94.933 191.632H94.861C94.441 192.16 93.997 192.55 93.529 192.802C93.073 193.054 92.437 193.18 91.621 193.18C90.745 193.18 90.019 192.952 89.443 192.496C88.867 192.028 88.579 191.302 88.579 190.318C88.579 189.358 88.957 188.62 89.713 188.104C90.469 187.576 91.633 187.288 93.205 187.24L94.843 187.186V186.61C94.843 185.806 94.669 185.248 94.321 184.936C93.973 184.624 93.481 184.468 92.845 184.468C92.341 184.468 91.861 184.546 91.405 184.702C90.949 184.846 90.523 185.014 90.127 185.206L89.641 184.018C90.061 183.79 90.559 183.598 91.135 183.442C91.711 183.274 92.311 183.19 92.935 183.19ZM93.403 188.338C92.203 188.386 91.369 188.578 90.901 188.914C90.445 189.25 90.217 189.724 90.217 190.336C90.217 190.876 90.379 191.272 90.703 191.524C91.039 191.776 91.465 191.902 91.981 191.902C92.797 191.902 93.475 191.68 94.015 191.236C94.555 190.78 94.825 190.084 94.825 189.148V188.284L93.403 188.338ZM104.015 183.172C105.167 183.172 106.037 183.454 106.625 184.018C107.213 184.57 107.507 185.47 107.507 186.718V193H105.941V186.826C105.941 185.278 105.221 184.504 103.781 184.504C102.713 184.504 101.975 184.804 101.567 185.404C101.159 186.004 100.955 186.868 100.955 187.996V193H99.3708V183.352H100.649L100.883 184.666H100.973C101.285 184.162 101.717 183.79 102.269 183.55C102.821 183.298 103.403 183.172 104.015 183.172ZM114.152 183.19C115.328 183.19 116.198 183.448 116.762 183.964C117.326 184.48 117.608 185.302 117.608 186.43V193H116.456L116.15 191.632H116.078C115.658 192.16 115.214 192.55 114.746 192.802C114.29 193.054 113.654 193.18 112.838 193.18C111.962 193.18 111.236 192.952 110.66 192.496C110.084 192.028 109.796 191.302 109.796 190.318C109.796 189.358 110.174 188.62 110.93 188.104C111.686 187.576 112.85 187.288 114.422 187.24L116.06 187.186V186.61C116.06 185.806 115.886 185.248 115.538 184.936C115.19 184.624 114.698 184.468 114.062 184.468C113.558 184.468 113.078 184.546 112.622 184.702C112.166 184.846 111.74 185.014 111.344 185.206L110.858 184.018C111.278 183.79 111.776 183.598 112.352 183.442C112.928 183.274 113.528 183.19 114.152 183.19ZM114.62 188.338C113.42 188.386 112.586 188.578 112.118 188.914C111.662 189.25 111.434 189.724 111.434 190.336C111.434 190.876 111.596 191.272 111.92 191.524C112.256 191.776 112.682 191.902 113.198 191.902C114.014 191.902 114.692 191.68 115.232 191.236C115.772 190.78 116.042 190.084 116.042 189.148V188.284L114.62 188.338ZM124.008 183.172C124.644 183.172 125.214 183.292 125.718 183.532C126.234 183.772 126.672 184.138 127.032 184.63H127.122L127.338 183.352H128.598V193.162C128.598 194.542 128.244 195.58 127.536 196.276C126.84 196.972 125.754 197.32 124.278 197.32C122.862 197.32 121.704 197.116 120.804 196.708V195.25C121.752 195.754 122.94 196.006 124.368 196.006C125.196 196.006 125.844 195.76 126.312 195.268C126.792 194.788 127.032 194.128 127.032 193.288V192.91C127.032 192.766 127.038 192.562 127.05 192.298C127.062 192.022 127.074 191.83 127.086 191.722H127.014C126.366 192.694 125.37 193.18 124.026 193.18C122.778 193.18 121.8 192.742 121.092 191.866C120.396 190.99 120.048 189.766 120.048 188.194C120.048 186.658 120.396 185.44 121.092 184.54C121.8 183.628 122.772 183.172 124.008 183.172ZM124.224 184.504C123.42 184.504 122.796 184.828 122.352 185.476C121.908 186.112 121.686 187.024 121.686 188.212C121.686 189.4 121.902 190.312 122.334 190.948C122.778 191.572 123.42 191.884 124.26 191.884C125.232 191.884 125.94 191.626 126.384 191.11C126.828 190.582 127.05 189.736 127.05 188.572V188.194C127.05 186.874 126.822 185.932 126.366 185.368C125.91 184.792 125.196 184.504 124.224 184.504ZM135.388 183.172C136.216 183.172 136.924 183.352 137.512 183.712C138.112 184.072 138.568 184.582 138.88 185.242C139.204 185.89 139.366 186.652 139.366 187.528V188.482H132.76C132.784 189.574 133.06 190.408 133.588 190.984C134.128 191.548 134.878 191.83 135.838 191.83C136.45 191.83 136.99 191.776 137.458 191.668C137.938 191.548 138.43 191.38 138.934 191.164V192.55C138.442 192.766 137.956 192.922 137.476 193.018C136.996 193.126 136.426 193.18 135.766 193.18C134.854 193.18 134.044 192.994 133.336 192.622C132.64 192.25 132.094 191.698 131.698 190.966C131.314 190.222 131.122 189.316 131.122 188.248C131.122 187.192 131.296 186.286 131.644 185.53C132.004 184.774 132.502 184.192 133.138 183.784C133.786 183.376 134.536 183.172 135.388 183.172ZM135.37 184.468C134.614 184.468 134.014 184.714 133.57 185.206C133.138 185.686 132.88 186.358 132.796 187.222H137.71C137.698 186.406 137.506 185.746 137.134 185.242C136.762 184.726 136.174 184.468 135.37 184.468ZM148.104 190.336C148.104 191.272 147.756 191.98 147.06 192.46C146.364 192.94 145.428 193.18 144.252 193.18C143.58 193.18 142.998 193.126 142.506 193.018C142.026 192.91 141.6 192.76 141.228 192.568V191.128C141.612 191.32 142.074 191.5 142.614 191.668C143.166 191.824 143.724 191.902 144.288 191.902C145.092 191.902 145.674 191.776 146.034 191.524C146.394 191.26 146.574 190.912 146.574 190.48C146.574 190.24 146.508 190.024 146.376 189.832C146.244 189.64 146.004 189.448 145.656 189.256C145.32 189.064 144.834 188.848 144.198 188.608C143.574 188.368 143.04 188.128 142.596 187.888C142.152 187.648 141.81 187.36 141.57 187.024C141.33 186.688 141.21 186.256 141.21 185.728C141.21 184.912 141.54 184.282 142.2 183.838C142.872 183.394 143.748 183.172 144.828 183.172C145.416 183.172 145.962 183.232 146.466 183.352C146.982 183.46 147.462 183.616 147.906 183.82L147.366 185.08C146.958 184.912 146.532 184.768 146.088 184.648C145.644 184.528 145.188 184.468 144.72 184.468C144.072 184.468 143.574 184.576 143.226 184.792C142.89 184.996 142.722 185.278 142.722 185.638C142.722 185.902 142.8 186.13 142.956 186.322C143.112 186.502 143.37 186.682 143.73 186.862C144.102 187.03 144.594 187.234 145.206 187.474C145.818 187.702 146.34 187.936 146.772 188.176C147.204 188.416 147.534 188.71 147.762 189.058C147.99 189.394 148.104 189.82 148.104 190.336ZM159.053 179.95C160.013 179.95 160.769 180.196 161.321 180.688C161.885 181.168 162.167 181.846 162.167 182.722C162.167 183.478 161.921 184.12 161.429 184.648C160.949 185.176 160.337 185.656 159.593 186.088L163.067 189.436C163.379 189.064 163.631 188.638 163.823 188.158C164.027 187.666 164.195 187.138 164.327 186.574H165.929C165.737 187.342 165.497 188.056 165.209 188.716C164.921 189.376 164.549 189.952 164.093 190.444L166.721 193H164.579L163.013 191.488C162.449 191.992 161.819 192.4 161.123 192.712C160.427 193.024 159.581 193.18 158.585 193.18C157.349 193.18 156.365 192.874 155.633 192.262C154.901 191.65 154.535 190.78 154.535 189.652C154.535 188.728 154.781 187.99 155.273 187.438C155.777 186.874 156.455 186.352 157.307 185.872C156.923 185.44 156.563 184.978 156.227 184.486C155.903 183.994 155.741 183.418 155.741 182.758C155.741 181.87 156.035 181.18 156.623 180.688C157.223 180.196 158.033 179.95 159.053 179.95ZM158.999 181.246C158.495 181.246 158.081 181.378 157.757 181.642C157.445 181.906 157.289 182.272 157.289 182.74C157.289 183.172 157.403 183.574 157.631 183.946C157.859 184.306 158.189 184.708 158.621 185.152C159.329 184.744 159.833 184.36 160.133 184C160.445 183.628 160.601 183.202 160.601 182.722C160.601 182.29 160.457 181.936 160.169 181.66C159.881 181.384 159.491 181.246 158.999 181.246ZM158.261 186.862C157.613 187.246 157.103 187.636 156.731 188.032C156.371 188.428 156.191 188.95 156.191 189.598C156.191 190.258 156.413 190.786 156.857 191.182C157.301 191.578 157.895 191.776 158.639 191.776C159.407 191.776 160.067 191.65 160.619 191.398C161.171 191.146 161.633 190.846 162.005 190.498L158.261 186.862ZM180.476 189.562C180.476 190.702 180.062 191.59 179.234 192.226C178.406 192.862 177.29 193.18 175.886 193.18C175.166 193.18 174.5 193.126 173.888 193.018C173.276 192.91 172.766 192.76 172.358 192.568V191.02C172.79 191.212 173.324 191.386 173.96 191.542C174.608 191.698 175.274 191.776 175.958 191.776C176.918 191.776 177.638 191.59 178.118 191.218C178.61 190.846 178.856 190.342 178.856 189.706C178.856 189.286 178.766 188.932 178.586 188.644C178.406 188.356 178.094 188.092 177.65 187.852C177.218 187.6 176.612 187.336 175.832 187.06C174.74 186.664 173.912 186.178 173.348 185.602C172.796 185.026 172.52 184.24 172.52 183.244C172.52 182.56 172.694 181.978 173.042 181.498C173.39 181.006 173.87 180.628 174.482 180.364C175.106 180.1 175.82 179.968 176.624 179.968C177.332 179.968 177.98 180.034 178.568 180.166C179.156 180.298 179.69 180.472 180.17 180.688L179.666 182.074C179.222 181.882 178.736 181.72 178.208 181.588C177.692 181.456 177.152 181.39 176.588 181.39C175.784 181.39 175.178 181.564 174.77 181.912C174.362 182.248 174.158 182.698 174.158 183.262C174.158 183.694 174.248 184.054 174.428 184.342C174.608 184.63 174.902 184.888 175.31 185.116C175.718 185.344 176.27 185.59 176.966 185.854C177.722 186.13 178.358 186.43 178.874 186.754C179.402 187.066 179.798 187.444 180.062 187.888C180.338 188.332 180.476 188.89 180.476 189.562ZM186.071 191.884C186.311 191.884 186.557 191.866 186.809 191.83C187.061 191.782 187.265 191.734 187.421 191.686V192.892C187.253 192.976 187.013 193.042 186.701 193.09C186.389 193.15 186.089 193.18 185.801 193.18C185.297 193.18 184.829 193.096 184.397 192.928C183.977 192.748 183.635 192.442 183.371 192.01C183.107 191.578 182.975 190.972 182.975 190.192V184.576H181.607V183.82L182.993 183.19L183.623 181.138H184.559V183.352H187.349V184.576H184.559V190.156C184.559 190.744 184.697 191.182 184.973 191.47C185.261 191.746 185.627 191.884 186.071 191.884ZM197.741 188.158C197.741 189.754 197.333 190.99 196.517 191.866C195.713 192.742 194.621 193.18 193.241 193.18C192.389 193.18 191.627 192.988 190.955 192.604C190.295 192.208 189.773 191.638 189.389 190.894C189.005 190.138 188.813 189.226 188.813 188.158C188.813 186.562 189.215 185.332 190.019 184.468C190.823 183.604 191.915 183.172 193.295 183.172C194.171 183.172 194.939 183.37 195.599 183.766C196.271 184.15 196.793 184.714 197.165 185.458C197.549 186.19 197.741 187.09 197.741 188.158ZM190.451 188.158C190.451 189.298 190.673 190.204 191.117 190.876C191.573 191.536 192.293 191.866 193.277 191.866C194.249 191.866 194.963 191.536 195.419 190.876C195.875 190.204 196.103 189.298 196.103 188.158C196.103 187.018 195.875 186.124 195.419 185.476C194.963 184.828 194.243 184.504 193.259 184.504C192.275 184.504 191.561 184.828 191.117 185.476C190.673 186.124 190.451 187.018 190.451 188.158ZM204.752 183.172C204.932 183.172 205.124 183.184 205.328 183.208C205.544 183.22 205.73 183.244 205.886 183.28L205.688 184.738C205.532 184.702 205.358 184.672 205.166 184.648C204.986 184.624 204.812 184.612 204.644 184.612C204.152 184.612 203.69 184.75 203.258 185.026C202.826 185.29 202.478 185.668 202.214 186.16C201.962 186.64 201.836 187.204 201.836 187.852V193H200.252V183.352H201.548L201.728 185.116H201.8C202.112 184.588 202.514 184.132 203.006 183.748C203.498 183.364 204.08 183.172 204.752 183.172ZM211.062 183.172C211.89 183.172 212.598 183.352 213.186 183.712C213.786 184.072 214.242 184.582 214.554 185.242C214.878 185.89 215.04 186.652 215.04 187.528V188.482H208.434C208.458 189.574 208.734 190.408 209.262 190.984C209.802 191.548 210.552 191.83 211.512 191.83C212.124 191.83 212.664 191.776 213.132 191.668C213.612 191.548 214.104 191.38 214.608 191.164V192.55C214.116 192.766 213.63 192.922 213.15 193.018C212.67 193.126 212.1 193.18 211.44 193.18C210.528 193.18 209.718 192.994 209.01 192.622C208.314 192.25 207.768 191.698 207.372 190.966C206.988 190.222 206.796 189.316 206.796 188.248C206.796 187.192 206.97 186.286 207.318 185.53C207.678 184.774 208.176 184.192 208.812 183.784C209.46 183.376 210.21 183.172 211.062 183.172ZM211.044 184.468C210.288 184.468 209.688 184.714 209.244 185.206C208.812 185.686 208.554 186.358 208.47 187.222H213.384C213.372 186.406 213.18 185.746 212.808 185.242C212.436 184.726 211.848 184.468 211.044 184.468ZM223.778 190.336C223.778 191.272 223.43 191.98 222.734 192.46C222.038 192.94 221.102 193.18 219.926 193.18C219.254 193.18 218.672 193.126 218.18 193.018C217.7 192.91 217.274 192.76 216.902 192.568V191.128C217.286 191.32 217.748 191.5 218.288 191.668C218.84 191.824 219.398 191.902 219.962 191.902C220.766 191.902 221.348 191.776 221.708 191.524C222.068 191.26 222.248 190.912 222.248 190.48C222.248 190.24 222.182 190.024 222.05 189.832C221.918 189.64 221.678 189.448 221.33 189.256C220.994 189.064 220.508 188.848 219.872 188.608C219.248 188.368 218.714 188.128 218.27 187.888C217.826 187.648 217.484 187.36 217.244 187.024C217.004 186.688 216.884 186.256 216.884 185.728C216.884 184.912 217.214 184.282 217.874 183.838C218.546 183.394 219.422 183.172 220.502 183.172C221.09 183.172 221.636 183.232 222.14 183.352C222.656 183.46 223.136 183.616 223.58 183.82L223.04 185.08C222.632 184.912 222.206 184.768 221.762 184.648C221.318 184.528 220.862 184.468 220.394 184.468C219.746 184.468 219.248 184.576 218.9 184.792C218.564 184.996 218.396 185.278 218.396 185.638C218.396 185.902 218.474 186.13 218.63 186.322C218.786 186.502 219.044 186.682 219.404 186.862C219.776 187.03 220.268 187.234 220.88 187.474C221.492 187.702 222.014 187.936 222.446 188.176C222.878 188.416 223.208 188.71 223.436 189.058C223.664 189.394 223.778 189.82 223.778 190.336Z" fill="#FBFAF7"/>
<defs>
<clipPath id="clip0_1_509">
<rect width="66" height="145" fill="white" transform="translate(115)"/>
</clipPath>
</defs>
</svg>
