<svg width="295" height="261" viewBox="0 0 295 261" fill="none" xmlns="http://www.w3.org/2000/svg">
<path d="M99.6673 238.42C99.3793 238.42 99.1273 238.396 98.9113 238.348C98.6953 238.312 98.5033 238.258 98.3353 238.186V236.818C98.5273 236.866 98.7313 236.908 98.9473 236.944C99.1633 236.98 99.3913 236.998 99.6313 236.998C99.9313 236.998 100.213 236.938 100.477 236.818C100.753 236.698 100.975 236.488 101.143 236.188C101.311 235.888 101.395 235.468 101.395 234.928V222.148H103.015V234.802C103.015 236.038 102.709 236.95 102.097 237.538C101.485 238.126 100.675 238.42 99.6673 238.42ZM114.255 225.352V235H112.959L112.725 233.722H112.653C112.341 234.226 111.909 234.598 111.357 234.838C110.805 235.066 110.217 235.18 109.593 235.18C108.429 235.18 107.553 234.904 106.965 234.352C106.377 233.788 106.083 232.894 106.083 231.67V225.352H107.685V231.562C107.685 233.098 108.399 233.866 109.827 233.866C110.895 233.866 111.633 233.566 112.041 232.966C112.461 232.366 112.671 231.502 112.671 230.374V225.352H114.255ZM123.6 232.336C123.6 233.272 123.252 233.98 122.556 234.46C121.86 234.94 120.924 235.18 119.748 235.18C119.076 235.18 118.494 235.126 118.002 235.018C117.522 234.91 117.096 234.76 116.724 234.568V233.128C117.108 233.32 117.57 233.5 118.11 233.668C118.662 233.824 119.22 233.902 119.784 233.902C120.588 233.902 121.17 233.776 121.53 233.524C121.89 233.26 122.07 232.912 122.07 232.48C122.07 232.24 122.004 232.024 121.872 231.832C121.74 231.64 121.5 231.448 121.152 231.256C120.816 231.064 120.33 230.848 119.694 230.608C119.07 230.368 118.536 230.128 118.092 229.888C117.648 229.648 117.306 229.36 117.066 229.024C116.826 228.688 116.706 228.256 116.706 227.728C116.706 226.912 117.036 226.282 117.696 225.838C118.368 225.394 119.244 225.172 120.324 225.172C120.912 225.172 121.458 225.232 121.962 225.352C122.478 225.46 122.958 225.616 123.402 225.82L122.862 227.08C122.454 226.912 122.028 226.768 121.584 226.648C121.14 226.528 120.684 226.468 120.216 226.468C119.568 226.468 119.07 226.576 118.722 226.792C118.386 226.996 118.218 227.278 118.218 227.638C118.218 227.902 118.296 228.13 118.452 228.322C118.608 228.502 118.866 228.682 119.226 228.862C119.598 229.03 120.09 229.234 120.702 229.474C121.314 229.702 121.836 229.936 122.268 230.176C122.7 230.416 123.03 230.71 123.258 231.058C123.486 231.394 123.6 231.82 123.6 232.336ZM129.153 233.884C129.393 233.884 129.639 233.866 129.891 233.83C130.143 233.782 130.347 233.734 130.503 233.686V234.892C130.335 234.976 130.095 235.042 129.783 235.09C129.471 235.15 129.171 235.18 128.883 235.18C128.379 235.18 127.911 235.096 127.479 234.928C127.059 234.748 126.717 234.442 126.453 234.01C126.189 233.578 126.057 232.972 126.057 232.192V226.576H124.689V225.82L126.075 225.19L126.705 223.138H127.641V225.352H130.431V226.576H127.641V232.156C127.641 232.744 127.779 233.182 128.055 233.47C128.343 233.746 128.709 233.884 129.153 233.884ZM137.921 221.734C138.161 221.734 138.371 221.818 138.551 221.986C138.743 222.142 138.839 222.394 138.839 222.742C138.839 223.078 138.743 223.33 138.551 223.498C138.371 223.666 138.161 223.75 137.921 223.75C137.657 223.75 137.435 223.666 137.255 223.498C137.075 223.33 136.985 223.078 136.985 222.742C136.985 222.394 137.075 222.142 137.255 221.986C137.435 221.818 137.657 221.734 137.921 221.734ZM138.695 225.352V235H137.111V225.352H138.695ZM146.396 225.172C147.548 225.172 148.418 225.454 149.006 226.018C149.594 226.57 149.888 227.47 149.888 228.718V235H148.322V228.826C148.322 227.278 147.602 226.504 146.162 226.504C145.094 226.504 144.356 226.804 143.948 227.404C143.54 228.004 143.336 228.868 143.336 229.996V235H141.752V225.352H143.03L143.264 226.666H143.354C143.666 226.162 144.098 225.79 144.65 225.55C145.202 225.298 145.784 225.172 146.396 225.172ZM163.278 223.39C161.898 223.39 160.812 223.852 160.02 224.776C159.228 225.7 158.832 226.966 158.832 228.574C158.832 230.17 159.198 231.436 159.93 232.372C160.674 233.296 161.784 233.758 163.26 233.758C163.824 233.758 164.358 233.71 164.862 233.614C165.366 233.518 165.858 233.398 166.338 233.254V234.658C165.858 234.838 165.36 234.97 164.844 235.054C164.34 235.138 163.734 235.18 163.026 235.18C161.718 235.18 160.626 234.91 159.75 234.37C158.874 233.83 158.214 233.062 157.77 232.066C157.338 231.07 157.122 229.9 157.122 228.556C157.122 227.26 157.356 226.12 157.824 225.136C158.304 224.14 159.006 223.366 159.93 222.814C160.854 222.25 161.976 221.968 163.296 221.968C164.652 221.968 165.834 222.22 166.842 222.724L166.194 224.092C165.798 223.912 165.354 223.75 164.862 223.606C164.382 223.462 163.854 223.39 163.278 223.39ZM172.581 225.19C173.757 225.19 174.627 225.448 175.191 225.964C175.755 226.48 176.037 227.302 176.037 228.43V235H174.885L174.579 233.632H174.507C174.087 234.16 173.643 234.55 173.175 234.802C172.719 235.054 172.083 235.18 171.267 235.18C170.391 235.18 169.665 234.952 169.089 234.496C168.513 234.028 168.225 233.302 168.225 232.318C168.225 231.358 168.603 230.62 169.359 230.104C170.115 229.576 171.279 229.288 172.851 229.24L174.489 229.186V228.61C174.489 227.806 174.315 227.248 173.967 226.936C173.619 226.624 173.127 226.468 172.491 226.468C171.987 226.468 171.507 226.546 171.051 226.702C170.595 226.846 170.169 227.014 169.773 227.206L169.287 226.018C169.707 225.79 170.205 225.598 170.781 225.442C171.357 225.274 171.957 225.19 172.581 225.19ZM173.049 230.338C171.849 230.386 171.015 230.578 170.547 230.914C170.091 231.25 169.863 231.724 169.863 232.336C169.863 232.876 170.025 233.272 170.349 233.524C170.685 233.776 171.111 233.902 171.627 233.902C172.443 233.902 173.121 233.68 173.661 233.236C174.201 232.78 174.471 232.084 174.471 231.148V230.284L173.049 230.338ZM185.299 232.336C185.299 233.272 184.951 233.98 184.255 234.46C183.559 234.94 182.623 235.18 181.447 235.18C180.775 235.18 180.193 235.126 179.701 235.018C179.221 234.91 178.795 234.76 178.423 234.568V233.128C178.807 233.32 179.269 233.5 179.809 233.668C180.361 233.824 180.919 233.902 181.483 233.902C182.287 233.902 182.869 233.776 183.229 233.524C183.589 233.26 183.769 232.912 183.769 232.48C183.769 232.24 183.703 232.024 183.571 231.832C183.439 231.64 183.199 231.448 182.851 231.256C182.515 231.064 182.029 230.848 181.393 230.608C180.769 230.368 180.235 230.128 179.791 229.888C179.347 229.648 179.005 229.36 178.765 229.024C178.525 228.688 178.405 228.256 178.405 227.728C178.405 226.912 178.735 226.282 179.395 225.838C180.067 225.394 180.943 225.172 182.023 225.172C182.611 225.172 183.157 225.232 183.661 225.352C184.177 225.46 184.657 225.616 185.101 225.82L184.561 227.08C184.153 226.912 183.727 226.768 183.283 226.648C182.839 226.528 182.383 226.468 181.915 226.468C181.267 226.468 180.769 226.576 180.421 226.792C180.085 226.996 179.917 227.278 179.917 227.638C179.917 227.902 179.995 228.13 180.151 228.322C180.307 228.502 180.565 228.682 180.925 228.862C181.297 229.03 181.789 229.234 182.401 229.474C183.013 229.702 183.535 229.936 183.967 230.176C184.399 230.416 184.729 230.71 184.957 231.058C185.185 231.394 185.299 231.82 185.299 232.336ZM191.357 225.172C192.185 225.172 192.893 225.352 193.481 225.712C194.081 226.072 194.537 226.582 194.849 227.242C195.173 227.89 195.335 228.652 195.335 229.528V230.482H188.729C188.753 231.574 189.029 232.408 189.557 232.984C190.097 233.548 190.847 233.83 191.807 233.83C192.419 233.83 192.959 233.776 193.427 233.668C193.907 233.548 194.399 233.38 194.903 233.164V234.55C194.411 234.766 193.925 234.922 193.445 235.018C192.965 235.126 192.395 235.18 191.735 235.18C190.823 235.18 190.013 234.994 189.305 234.622C188.609 234.25 188.063 233.698 187.667 232.966C187.283 232.222 187.091 231.316 187.091 230.248C187.091 229.192 187.265 228.286 187.613 227.53C187.973 226.774 188.471 226.192 189.107 225.784C189.755 225.376 190.505 225.172 191.357 225.172ZM191.339 226.468C190.583 226.468 189.983 226.714 189.539 227.206C189.107 227.686 188.849 228.358 188.765 229.222H193.679C193.667 228.406 193.475 227.746 193.103 227.242C192.731 226.726 192.143 226.468 191.339 226.468Z" fill="#FBFAF7"/>
<g clip-path="url(#clip0_1_524)">
<path d="M113.869 30.9088C110.489 34.1349 108.335 40.0377 108.179 46.5497C107.644 68.5716 107.137 115.112 125.556 138.735L141.343 156.336C144.944 160.351 149.6 160.554 153.337 156.886C158.221 152.094 164.76 144.877 168.539 137.385C168.71 137.038 168.889 136.716 169.074 136.393C171.47 132.319 189.51 99.7223 186.708 45.9762C186.387 39.8227 184.298 34.3021 181.103 31.2074L153.151 4.16719C149.671 0.797615 145.386 0.773715 141.899 4.11939L113.869 30.9088Z" fill="#F7BC28"/>
<path d="M122.553 43.2267C120.051 45.6164 118.453 50.0016 118.332 54.829C117.933 71.163 117.562 105.671 131.217 123.2L142.926 136.26C145.6 139.236 149.051 139.391 151.817 136.667C155.44 133.118 160.289 127.765 163.091 122.209C163.219 121.958 163.348 121.707 163.49 121.48C165.266 118.457 178.593 94.0452 176.568 54.4228C176.439 51.8537 172.632 44.1707 171.334 42.426L151.689 23.3915C149.108 20.8942 145.935 20.8822 143.346 23.3557L122.553 43.2267Z" fill="#E48929"/>
<path d="M147.497 21.5037V80.5669H175.741C175.741 80.5669 177.752 64.0894 176.575 54.4227C176.575 54.4227 176.247 47.7792 171.341 42.4261L151.689 23.3917C151.689 23.3917 149.693 21.3842 147.497 21.5037Z" fill="#FBFAF7"/>
<path d="M147.496 80.5668L147.489 138.591C147.489 138.591 145.222 138.806 142.377 135.627L132.964 125.136C132.964 125.136 124.985 117.166 122.39 103.975C122.39 103.975 119.117 91.8467 118.667 79.4795L147.496 80.5668Z" fill="#FBFAF7"/>
</g>
<path d="M57.1363 195.148C58.8163 195.148 60.0403 195.478 60.8083 196.138C61.5763 196.798 61.9603 197.728 61.9603 198.928C61.9603 199.636 61.7983 200.302 61.4743 200.926C61.1623 201.538 60.6283 202.036 59.8723 202.42C59.1283 202.804 58.1143 202.996 56.8303 202.996H55.3543V208H53.7343V195.148H57.1363ZM56.9923 196.534H55.3543V201.61H56.6503C57.8743 201.61 58.7863 201.412 59.3863 201.016C59.9863 200.62 60.2863 199.948 60.2863 199C60.2863 198.172 60.0223 197.554 59.4943 197.146C58.9663 196.738 58.1323 196.534 56.9923 196.534ZM68.9167 198.172C69.0967 198.172 69.2887 198.184 69.4927 198.208C69.7087 198.22 69.8947 198.244 70.0507 198.28L69.8527 199.738C69.6967 199.702 69.5227 199.672 69.3307 199.648C69.1507 199.624 68.9767 199.612 68.8087 199.612C68.3167 199.612 67.8547 199.75 67.4227 200.026C66.9907 200.29 66.6427 200.668 66.3787 201.16C66.1267 201.64 66.0007 202.204 66.0007 202.852V208H64.4167V198.352H65.7127L65.8927 200.116H65.9647C66.2767 199.588 66.6787 199.132 67.1707 198.748C67.6627 198.364 68.2447 198.172 68.9167 198.172ZM79.8887 203.158C79.8887 204.754 79.4807 205.99 78.6647 206.866C77.8607 207.742 76.7687 208.18 75.3887 208.18C74.5367 208.18 73.7747 207.988 73.1027 207.604C72.4427 207.208 71.9207 206.638 71.5367 205.894C71.1527 205.138 70.9607 204.226 70.9607 203.158C70.9607 201.562 71.3627 200.332 72.1667 199.468C72.9707 198.604 74.0627 198.172 75.4427 198.172C76.3187 198.172 77.0867 198.37 77.7467 198.766C78.4187 199.15 78.9407 199.714 79.3127 200.458C79.6967 201.19 79.8887 202.09 79.8887 203.158ZM72.5987 203.158C72.5987 204.298 72.8207 205.204 73.2647 205.876C73.7207 206.536 74.4407 206.866 75.4247 206.866C76.3967 206.866 77.1107 206.536 77.5667 205.876C78.0227 205.204 78.2507 204.298 78.2507 203.158C78.2507 202.018 78.0227 201.124 77.5667 200.476C77.1107 199.828 76.3907 199.504 75.4067 199.504C74.4227 199.504 73.7087 199.828 73.2647 200.476C72.8207 201.124 72.5987 202.018 72.5987 203.158ZM85.6211 206.884C85.8611 206.884 86.1071 206.866 86.3591 206.83C86.6111 206.782 86.8151 206.734 86.9711 206.686V207.892C86.8031 207.976 86.5631 208.042 86.2511 208.09C85.9391 208.15 85.6391 208.18 85.3511 208.18C84.8471 208.18 84.3791 208.096 83.9471 207.928C83.5271 207.748 83.1851 207.442 82.9211 207.01C82.6571 206.578 82.5251 205.972 82.5251 205.192V199.576H81.1571V198.82L82.5431 198.19L83.1731 196.138H84.1091V198.352H86.8991V199.576H84.1091V205.156C84.1091 205.744 84.2471 206.182 84.5231 206.47C84.8111 206.746 85.1771 206.884 85.6211 206.884ZM92.629 198.172C93.457 198.172 94.165 198.352 94.753 198.712C95.353 199.072 95.809 199.582 96.121 200.242C96.445 200.89 96.607 201.652 96.607 202.528V203.482H90.001C90.025 204.574 90.301 205.408 90.829 205.984C91.369 206.548 92.119 206.83 93.079 206.83C93.691 206.83 94.231 206.776 94.699 206.668C95.179 206.548 95.671 206.38 96.175 206.164V207.55C95.683 207.766 95.197 207.922 94.717 208.018C94.237 208.126 93.667 208.18 93.007 208.18C92.095 208.18 91.285 207.994 90.577 207.622C89.881 207.25 89.335 206.698 88.939 205.966C88.555 205.222 88.363 204.316 88.363 203.248C88.363 202.192 88.537 201.286 88.885 200.53C89.245 199.774 89.743 199.192 90.379 198.784C91.027 198.376 91.777 198.172 92.629 198.172ZM92.611 199.468C91.855 199.468 91.255 199.714 90.811 200.206C90.379 200.686 90.121 201.358 90.037 202.222H94.951C94.939 201.406 94.747 200.746 94.375 200.242C94.003 199.726 93.415 199.468 92.611 199.468ZM102.933 208.18C102.081 208.18 101.319 208.006 100.647 207.658C99.9872 207.31 99.4652 206.77 99.0812 206.038C98.7092 205.306 98.5232 204.37 98.5232 203.23C98.5232 202.042 98.7212 201.076 99.1172 200.332C99.5132 199.588 100.047 199.042 100.719 198.694C101.403 198.346 102.177 198.172 103.041 198.172C103.533 198.172 104.007 198.226 104.463 198.334C104.919 198.43 105.291 198.55 105.579 198.694L105.093 200.008C104.805 199.9 104.469 199.798 104.085 199.702C103.701 199.606 103.341 199.558 103.005 199.558C101.109 199.558 100.161 200.776 100.161 203.212C100.161 204.376 100.389 205.27 100.845 205.894C101.313 206.506 102.003 206.812 102.915 206.812C103.443 206.812 103.905 206.758 104.301 206.65C104.709 206.542 105.081 206.41 105.417 206.254V207.658C105.093 207.826 104.733 207.952 104.337 208.036C103.953 208.132 103.485 208.18 102.933 208.18ZM110.934 206.884C111.174 206.884 111.42 206.866 111.672 206.83C111.924 206.782 112.128 206.734 112.284 206.686V207.892C112.116 207.976 111.876 208.042 111.564 208.09C111.252 208.15 110.952 208.18 110.664 208.18C110.16 208.18 109.692 208.096 109.26 207.928C108.84 207.748 108.498 207.442 108.234 207.01C107.97 206.578 107.838 205.972 107.838 205.192V199.576H106.47V198.82L107.856 198.19L108.486 196.138H109.422V198.352H112.212V199.576H109.422V205.156C109.422 205.744 109.56 206.182 109.836 206.47C110.124 206.746 110.49 206.884 110.934 206.884ZM120.498 205.336C120.498 206.272 120.15 206.98 119.454 207.46C118.758 207.94 117.822 208.18 116.646 208.18C115.974 208.18 115.392 208.126 114.9 208.018C114.42 207.91 113.994 207.76 113.622 207.568V206.128C114.006 206.32 114.468 206.5 115.008 206.668C115.56 206.824 116.118 206.902 116.682 206.902C117.486 206.902 118.068 206.776 118.428 206.524C118.788 206.26 118.968 205.912 118.968 205.48C118.968 205.24 118.902 205.024 118.77 204.832C118.638 204.64 118.398 204.448 118.05 204.256C117.714 204.064 117.228 203.848 116.592 203.608C115.968 203.368 115.434 203.128 114.99 202.888C114.546 202.648 114.204 202.36 113.964 202.024C113.724 201.688 113.604 201.256 113.604 200.728C113.604 199.912 113.934 199.282 114.594 198.838C115.266 198.394 116.142 198.172 117.222 198.172C117.81 198.172 118.356 198.232 118.86 198.352C119.376 198.46 119.856 198.616 120.3 198.82L119.76 200.08C119.352 199.912 118.926 199.768 118.482 199.648C118.038 199.528 117.582 199.468 117.114 199.468C116.466 199.468 115.968 199.576 115.62 199.792C115.284 199.996 115.116 200.278 115.116 200.638C115.116 200.902 115.194 201.13 115.35 201.322C115.506 201.502 115.764 201.682 116.124 201.862C116.496 202.03 116.988 202.234 117.6 202.474C118.212 202.702 118.734 202.936 119.166 203.176C119.598 203.416 119.928 203.71 120.156 204.058C120.384 204.394 120.498 204.82 120.498 205.336ZM131.069 201.466L134.417 195.148H136.163L131.879 203.014V208H130.259V203.086L125.975 195.148H127.739L131.069 201.466ZM145.191 203.158C145.191 204.754 144.783 205.99 143.967 206.866C143.163 207.742 142.071 208.18 140.691 208.18C139.839 208.18 139.077 207.988 138.405 207.604C137.745 207.208 137.223 206.638 136.839 205.894C136.455 205.138 136.263 204.226 136.263 203.158C136.263 201.562 136.665 200.332 137.469 199.468C138.273 198.604 139.365 198.172 140.745 198.172C141.621 198.172 142.389 198.37 143.049 198.766C143.721 199.15 144.243 199.714 144.615 200.458C144.999 201.19 145.191 202.09 145.191 203.158ZM137.901 203.158C137.901 204.298 138.123 205.204 138.567 205.876C139.023 206.536 139.743 206.866 140.727 206.866C141.699 206.866 142.413 206.536 142.869 205.876C143.325 205.204 143.553 204.298 143.553 203.158C143.553 202.018 143.325 201.124 142.869 200.476C142.413 199.828 141.693 199.504 140.709 199.504C139.725 199.504 139.011 199.828 138.567 200.476C138.123 201.124 137.901 202.018 137.901 203.158ZM155.766 198.352V208H154.47L154.236 206.722H154.164C153.852 207.226 153.42 207.598 152.868 207.838C152.316 208.066 151.728 208.18 151.104 208.18C149.94 208.18 149.064 207.904 148.476 207.352C147.888 206.788 147.594 205.894 147.594 204.67V198.352H149.196V204.562C149.196 206.098 149.91 206.866 151.338 206.866C152.406 206.866 153.144 206.566 153.552 205.966C153.972 205.366 154.182 204.502 154.182 203.374V198.352H155.766ZM163.329 198.172C163.509 198.172 163.701 198.184 163.905 198.208C164.121 198.22 164.307 198.244 164.463 198.28L164.265 199.738C164.109 199.702 163.935 199.672 163.743 199.648C163.563 199.624 163.389 199.612 163.221 199.612C162.729 199.612 162.267 199.75 161.835 200.026C161.403 200.29 161.055 200.668 160.791 201.16C160.539 201.64 160.413 202.204 160.413 202.852V208H158.829V198.352H160.125L160.305 200.116H160.377C160.689 199.588 161.091 199.132 161.583 198.748C162.075 198.364 162.657 198.172 163.329 198.172ZM174.828 195.148C176.436 195.148 177.648 195.388 178.464 195.868C179.292 196.336 179.706 197.158 179.706 198.334C179.706 199.09 179.496 199.72 179.076 200.224C178.656 200.716 178.05 201.034 177.258 201.178V201.268C177.798 201.352 178.284 201.508 178.716 201.736C179.16 201.964 179.508 202.288 179.76 202.708C180.012 203.128 180.138 203.674 180.138 204.346C180.138 205.51 179.736 206.41 178.932 207.046C178.14 207.682 177.054 208 175.674 208H171.156V195.148H174.828ZM175.152 200.62C176.256 200.62 177.012 200.446 177.42 200.098C177.828 199.738 178.032 199.21 178.032 198.514C178.032 197.806 177.78 197.302 177.276 197.002C176.784 196.69 175.992 196.534 174.9 196.534H172.776V200.62H175.152ZM172.776 201.97V206.632H175.368C176.508 206.632 177.3 206.41 177.744 205.966C178.188 205.522 178.41 204.94 178.41 204.22C178.41 203.548 178.176 203.008 177.708 202.6C177.252 202.18 176.43 201.97 175.242 201.97H172.776ZM190.711 198.352V208H189.415L189.181 206.722H189.109C188.797 207.226 188.365 207.598 187.813 207.838C187.261 208.066 186.673 208.18 186.049 208.18C184.885 208.18 184.009 207.904 183.421 207.352C182.833 206.788 182.539 205.894 182.539 204.67V198.352H184.141V204.562C184.141 206.098 184.855 206.866 186.283 206.866C187.351 206.866 188.089 206.566 188.497 205.966C188.917 205.366 189.127 204.502 189.127 203.374V198.352H190.711ZM200.056 205.336C200.056 206.272 199.708 206.98 199.012 207.46C198.316 207.94 197.38 208.18 196.204 208.18C195.532 208.18 194.95 208.126 194.458 208.018C193.978 207.91 193.552 207.76 193.18 207.568V206.128C193.564 206.32 194.026 206.5 194.566 206.668C195.118 206.824 195.676 206.902 196.24 206.902C197.044 206.902 197.626 206.776 197.986 206.524C198.346 206.26 198.526 205.912 198.526 205.48C198.526 205.24 198.46 205.024 198.328 204.832C198.196 204.64 197.956 204.448 197.608 204.256C197.272 204.064 196.786 203.848 196.15 203.608C195.526 203.368 194.992 203.128 194.548 202.888C194.104 202.648 193.762 202.36 193.522 202.024C193.282 201.688 193.162 201.256 193.162 200.728C193.162 199.912 193.492 199.282 194.152 198.838C194.824 198.394 195.7 198.172 196.78 198.172C197.368 198.172 197.914 198.232 198.418 198.352C198.934 198.46 199.414 198.616 199.858 198.82L199.318 200.08C198.91 199.912 198.484 199.768 198.04 199.648C197.596 199.528 197.14 199.468 196.672 199.468C196.024 199.468 195.526 199.576 195.178 199.792C194.842 199.996 194.674 200.278 194.674 200.638C194.674 200.902 194.752 201.13 194.908 201.322C195.064 201.502 195.322 201.682 195.682 201.862C196.054 202.03 196.546 202.234 197.158 202.474C197.77 202.702 198.292 202.936 198.724 203.176C199.156 203.416 199.486 203.71 199.714 204.058C199.942 204.394 200.056 204.82 200.056 205.336ZM203.197 194.734C203.437 194.734 203.647 194.818 203.827 194.986C204.019 195.142 204.115 195.394 204.115 195.742C204.115 196.078 204.019 196.33 203.827 196.498C203.647 196.666 203.437 196.75 203.197 196.75C202.933 196.75 202.711 196.666 202.531 196.498C202.351 196.33 202.261 196.078 202.261 195.742C202.261 195.394 202.351 195.142 202.531 194.986C202.711 194.818 202.933 194.734 203.197 194.734ZM203.971 198.352V208H202.387V198.352H203.971ZM211.672 198.172C212.824 198.172 213.694 198.454 214.282 199.018C214.87 199.57 215.164 200.47 215.164 201.718V208H213.598V201.826C213.598 200.278 212.878 199.504 211.438 199.504C210.37 199.504 209.632 199.804 209.224 200.404C208.816 201.004 208.612 201.868 208.612 202.996V208H207.028V198.352H208.306L208.54 199.666H208.63C208.942 199.162 209.374 198.79 209.926 198.55C210.478 198.298 211.06 198.172 211.672 198.172ZM221.881 198.172C222.709 198.172 223.417 198.352 224.005 198.712C224.605 199.072 225.061 199.582 225.373 200.242C225.697 200.89 225.859 201.652 225.859 202.528V203.482H219.253C219.277 204.574 219.553 205.408 220.081 205.984C220.621 206.548 221.371 206.83 222.331 206.83C222.943 206.83 223.483 206.776 223.951 206.668C224.431 206.548 224.923 206.38 225.427 206.164V207.55C224.935 207.766 224.449 207.922 223.969 208.018C223.489 208.126 222.919 208.18 222.259 208.18C221.347 208.18 220.537 207.994 219.829 207.622C219.133 207.25 218.587 206.698 218.191 205.966C217.807 205.222 217.615 204.316 217.615 203.248C217.615 202.192 217.789 201.286 218.137 200.53C218.497 199.774 218.995 199.192 219.631 198.784C220.279 198.376 221.029 198.172 221.881 198.172ZM221.863 199.468C221.107 199.468 220.507 199.714 220.063 200.206C219.631 200.686 219.373 201.358 219.289 202.222H224.203C224.191 201.406 223.999 200.746 223.627 200.242C223.255 199.726 222.667 199.468 221.863 199.468ZM234.597 205.336C234.597 206.272 234.249 206.98 233.553 207.46C232.857 207.94 231.921 208.18 230.745 208.18C230.073 208.18 229.491 208.126 228.999 208.018C228.519 207.91 228.093 207.76 227.721 207.568V206.128C228.105 206.32 228.567 206.5 229.107 206.668C229.659 206.824 230.217 206.902 230.781 206.902C231.585 206.902 232.167 206.776 232.527 206.524C232.887 206.26 233.067 205.912 233.067 205.48C233.067 205.24 233.001 205.024 232.869 204.832C232.737 204.64 232.497 204.448 232.149 204.256C231.813 204.064 231.327 203.848 230.691 203.608C230.067 203.368 229.533 203.128 229.089 202.888C228.645 202.648 228.303 202.36 228.063 202.024C227.823 201.688 227.703 201.256 227.703 200.728C227.703 199.912 228.033 199.282 228.693 198.838C229.365 198.394 230.241 198.172 231.321 198.172C231.909 198.172 232.455 198.232 232.959 198.352C233.475 198.46 233.955 198.616 234.399 198.82L233.859 200.08C233.451 199.912 233.025 199.768 232.581 199.648C232.137 199.528 231.681 199.468 231.213 199.468C230.565 199.468 230.067 199.576 229.719 199.792C229.383 199.996 229.215 200.278 229.215 200.638C229.215 200.902 229.293 201.13 229.449 201.322C229.605 201.502 229.863 201.682 230.223 201.862C230.595 202.03 231.087 202.234 231.699 202.474C232.311 202.702 232.833 202.936 233.265 203.176C233.697 203.416 234.027 203.71 234.255 204.058C234.483 204.394 234.597 204.82 234.597 205.336ZM243.21 205.336C243.21 206.272 242.862 206.98 242.166 207.46C241.47 207.94 240.534 208.18 239.358 208.18C238.686 208.18 238.104 208.126 237.612 208.018C237.132 207.91 236.706 207.76 236.334 207.568V206.128C236.718 206.32 237.18 206.5 237.72 206.668C238.272 206.824 238.83 206.902 239.394 206.902C240.198 206.902 240.78 206.776 241.14 206.524C241.5 206.26 241.68 205.912 241.68 205.48C241.68 205.24 241.614 205.024 241.482 204.832C241.35 204.64 241.11 204.448 240.762 204.256C240.426 204.064 239.94 203.848 239.304 203.608C238.68 203.368 238.146 203.128 237.702 202.888C237.258 202.648 236.916 202.36 236.676 202.024C236.436 201.688 236.316 201.256 236.316 200.728C236.316 199.912 236.646 199.282 237.306 198.838C237.978 198.394 238.854 198.172 239.934 198.172C240.522 198.172 241.068 198.232 241.572 198.352C242.088 198.46 242.568 198.616 243.012 198.82L242.472 200.08C242.064 199.912 241.638 199.768 241.194 199.648C240.75 199.528 240.294 199.468 239.826 199.468C239.178 199.468 238.68 199.576 238.332 199.792C237.996 199.996 237.828 200.278 237.828 200.638C237.828 200.902 237.906 201.13 238.062 201.322C238.218 201.502 238.476 201.682 238.836 201.862C239.208 202.03 239.7 202.234 240.312 202.474C240.924 202.702 241.446 202.936 241.878 203.176C242.31 203.416 242.64 203.71 242.868 204.058C243.096 204.394 243.21 204.82 243.21 205.336Z" fill="#FBFAF7"/>
<defs>
<clipPath id="clip0_1_524">
<rect width="79" height="160" fill="white" transform="translate(108)"/>
</clipPath>
</defs>
</svg>
